<?xml version="1.0" encoding="utf-8"?>
<!-- Generator: Adobe Illustrator 22.0.1, SVG Export Plug-In . SVG Version: 6.00 Build 0)  -->
<svg version="1.1" id="Слой_1" xmlns="http://www.w3.org/2000/svg" xmlns:xlink="http://www.w3.org/1999/xlink" x="0px" y="0px"
	 viewBox="0 0 127.6 126.8" style="enable-background:new 0 0 127.6 126.8;" xml:space="preserve">
<style type="text/css">
	.st0{fill:#005EFF;}
</style>
<g>
	<path class="st0" d="M126.6,22.3c0-6.5-5.2-11.8-11.7-11.8h-12.3V4.8c0-2.2-1.7-3.9-3.9-3.9c-2.2,0-3.9,1.8-3.9,3.9v5.7H33.7V4.8
		c0-2.2-1.7-3.9-3.9-3.9c-2.1,0-3.9,1.8-3.9,3.9v5.7H13.7C7.3,10.5,2,15.8,2,22.3v17.9c0,0.2,0.1,0.4,0.1,0.6C2.1,41,2,41.2,2,41.4
		l0,0l0,0v72.2c0,6.5,5.2,11.8,11.7,11.8h101.2c6.4,0,11.7-5.3,11.7-11.8V41.5l0,0l0,0c0-0.2-0.1-0.4-0.1-0.6c0-0.2,0.1-0.4,0.1-0.6
		V22.3z M118.8,113.7c0,2.2-1.7,3.9-3.9,3.9H13.7c-2.1,0-3.9-1.8-3.9-3.9V45.4h108.9v68.3H118.8z M118.8,37.5H9.8V22.3
		c0-2.2,1.7-3.9,3.9-3.9h12.2v5.7c0,2.2,1.7,3.9,3.9,3.9c2.1,0,3.9-1.7,3.9-3.9v-5.7h61.1v5.7c0,2.2,1.7,3.9,3.9,3.9
		c2.1,0,3.9-1.8,3.9-3.9v-5.7h12.3c2.1,0,3.9,1.8,3.9,3.9V37.5z"/>
	<path class="st0" d="M47.2,66.8c0,2.2-1.7,3.9-3.9,3.9c-2.1,0-3.9-1.8-3.9-3.9c0-2.2,1.7-3.9,3.9-3.9
		C45.4,62.8,47.2,64.6,47.2,66.8L47.2,66.8z"/>
	<path class="st0" d="M66,66.8c0,2.2-1.7,3.9-3.9,3.9c-2.1,0-3.9-1.8-3.9-3.9c0-2.2,1.7-3.9,3.9-3.9C64.2,62.8,66,64.6,66,66.8
		L66,66.8z"/>
	<path class="st0" d="M87,66.8c0,2.2-1.7,3.9-3.9,3.9c-2.1,0-3.9-1.8-3.9-3.9c0-2.2,1.7-3.9,3.9-3.9C85.3,62.8,87,64.6,87,66.8
		L87,66.8z"/>
	<path class="st0" d="M108.5,66.8c0,2.2-1.7,3.9-3.9,3.9c-2.1,0-3.9-1.8-3.9-3.9c0-2.2,1.7-3.9,3.9-3.9
		C106.7,62.8,108.5,64.6,108.5,66.8L108.5,66.8z"/>
	<path class="st0" d="M27.9,80.3c0,2.2-1.7,3.9-3.9,3.9c-2.1,0-3.9-1.8-3.9-3.9c0-2.2,1.7-3.9,3.9-3.9
		C26.2,76.4,27.9,78.2,27.9,80.3L27.9,80.3z"/>
	<path class="st0" d="M47.2,80.3c0,2.2-1.7,3.9-3.9,3.9c-2.1,0-3.9-1.8-3.9-3.9c0-2.2,1.7-3.9,3.9-3.9
		C45.4,76.4,47.2,78.2,47.2,80.3L47.2,80.3z"/>
	<path class="st0" d="M66,80.3c0,2.2-1.7,3.9-3.9,3.9c-2.1,0-3.9-1.8-3.9-3.9c0-2.2,1.7-3.9,3.9-3.9C64.2,76.4,66,78.2,66,80.3
		L66,80.3z"/>
	<path class="st0" d="M87,80.3c0,2.2-1.7,3.9-3.9,3.9c-2.1,0-3.9-1.8-3.9-3.9c0-2.2,1.7-3.9,3.9-3.9S87,78.2,87,80.3L87,80.3z"/>
	<path class="st0" d="M108.5,80.3c0,2.2-1.7,3.9-3.9,3.9c-2.1,0-3.9-1.8-3.9-3.9c0-2.2,1.7-3.9,3.9-3.9
		C106.7,76.4,108.5,78.2,108.5,80.3L108.5,80.3z"/>
	<path class="st0" d="M27.9,93.8c0,2.2-1.7,3.9-3.9,3.9c-2.1,0-3.9-1.8-3.9-3.9c0-2.2,1.7-3.9,3.9-3.9
		C26.2,89.9,27.9,91.7,27.9,93.8L27.9,93.8z"/>
	<path class="st0" d="M47.2,93.8c0,2.2-1.7,3.9-3.9,3.9c-2.1,0-3.9-1.8-3.9-3.9c0-2.2,1.7-3.9,3.9-3.9
		C45.4,89.9,47.2,91.7,47.2,93.8L47.2,93.8z"/>
	<path class="st0" d="M66,93.8c0,2.2-1.7,3.9-3.9,3.9c-2.1,0-3.9-1.8-3.9-3.9c0-2.2,1.7-3.9,3.9-3.9C64.2,89.9,66,91.7,66,93.8
		L66,93.8z"/>
	<path class="st0" d="M87,93.8c0,2.2-1.7,3.9-3.9,3.9c-2.1,0-3.9-1.8-3.9-3.9c0-2.2,1.7-3.9,3.9-3.9S87,91.7,87,93.8L87,93.8z"/>
	<path class="st0" d="M108.5,93.8c0,2.2-1.7,3.9-3.9,3.9c-2.1,0-3.9-1.8-3.9-3.9c0-2.2,1.7-3.9,3.9-3.9
		C106.7,89.9,108.5,91.7,108.5,93.8L108.5,93.8z"/>
	<path class="st0" d="M27.9,107.4c0,2.2-1.7,3.9-3.9,3.9c-2.1,0-3.9-1.7-3.9-3.9c0-2.2,1.7-3.9,3.9-3.9
		C26.2,103.5,27.9,105.3,27.9,107.4L27.9,107.4z"/>
	<path class="st0" d="M47.2,107.4c0,2.2-1.7,3.9-3.9,3.9c-2.1,0-3.9-1.7-3.9-3.9c0-2.2,1.7-3.9,3.9-3.9
		C45.4,103.5,47.2,105.3,47.2,107.4L47.2,107.4z"/>
	<path class="st0" d="M66,107.4c0,2.2-1.7,3.9-3.9,3.9c-2.1,0-3.9-1.7-3.9-3.9c0-2.2,1.7-3.9,3.9-3.9C64.2,103.5,66,105.3,66,107.4
		L66,107.4z"/>
</g>
</svg>
