<?xml version="1.0" encoding="utf-8"?>
<!-- Generator: Adobe Illustrator 22.0.1, SVG Export Plug-In . SVG Version: 6.00 Build 0)  -->
<svg version="1.1" id="Слой_1" xmlns="http://www.w3.org/2000/svg" xmlns:xlink="http://www.w3.org/1999/xlink" x="0px" y="0px"
	 viewBox="0 0 150 71.6" style="enable-background:new 0 0 150 71.6;" xml:space="preserve">
<style type="text/css">
	.st0{fill:#005EFF;}
</style>
<g>
	<path d="M125.9,72.1H26.4c-9,0-16.3-7.3-16.3-16.3v-3.7c0-9,7.3-16.3,16.3-16.3H32c1.5,0,2.8,1.1,3,2.6
		c0.9,5.9,5.8,10.2,11.7,10.2s10.9-4.3,11.7-10.2c0.2-1.5,1.5-2.6,3-2.6H82c0.8,0,1.6,0.3,2.2,0.9s0.9,1.4,0.9,2.2
		c0,0.1,0,0.4,0,0.5c0,8.4,7.1,15.4,15.8,15.4s15.8-7.1,15.8-15.8c0-0.8,0.3-1.7,0.9-2.3c0.6-0.6,1.4-1,2.2-1h6.3
		c9,0,16.3,7.3,16.3,16.3v3.8C142.2,64.8,134.9,72.1,125.9,72.1z M26.4,41.9c-5.6,0-10.2,4.6-10.2,10.2v3.7
		c0,5.6,4.6,10.2,10.2,10.2h99.5c5.6,0,10.2-4.6,10.2-10.2v-3.7c0-5.6-4.6-10.2-10.2-10.2h-3.4C121,52.8,111.8,61,100.8,61
		c-11.1,0-20.3-8.3-21.7-19.1H64c-2.3,7.5-9.1,12.8-17.2,12.8s-14.9-5.2-17.2-12.8H26.4z"/>
	<g>
		<path d="M99.2,8v27.6L92.6,29c-0.6-0.6-1.5-0.6-2.1,0s-0.6,1.5,0,2.1l9.1,9.1c0.6,0.6,1.5,0.6,2.1,0l9.1-9.1
			c0.3-0.3,0.4-0.7,0.4-1s-0.1-0.8-0.4-1c-0.6-0.6-1.5-0.6-2.1,0l-6.6,6.6V8c0-0.8-0.7-1.5-1.5-1.5C99.8,6.6,99.2,7.2,99.2,8L99.2,8
			z"/>
		<path  d="M100.6,41.7c-0.6,0-1.2-0.3-1.7-0.7l-9.1-9.2c-0.9-0.9-0.9-2.5,0-3.4c0.5-0.5,1.1-0.7,1.7-0.7l0,0
			c0.6,0,1.2,0.3,1.7,0.7l5,5V8c0-1.3,1.1-2.4,2.4-2.4S103,6.7,103,8v25.4l5-5c0.9-0.9,2.5-0.9,3.4,0c0.5,0.5,0.7,1.1,0.7,1.7
			s-0.3,1.3-0.7,1.7l-9.1,9.1C101.9,41.4,101.3,41.7,100.6,41.7L100.6,41.7z M91.5,29.6c-0.1,0-0.3,0.1-0.4,0.2
			c-0.2,0.2-0.2,0.6,0,0.8l9.1,9.1c0.1,0.1,0.2,0.2,0.4,0.2l0,0c0.1,0,0.3-0.1,0.4-0.2l9.1-9.1c0.1-0.1,0.2-0.2,0.2-0.4
			c0-0.1-0.1-0.3-0.2-0.4c-0.2-0.2-0.6-0.2-0.8,0l-8.2,8.2V8c0-0.6-1.1-0.6-1.1,0v29.9l-8.2-8.2C91.8,29.6,91.7,29.6,91.5,29.6
			L91.5,29.6z"/>
	</g>
	<g>
		<path  d="M44.9,3.9v27.6l-6.6-6.6c-0.6-0.6-1.5-0.6-2.1,0s-0.6,1.5,0,2.1l9.1,9.1c0.6,0.6,1.5,0.6,2.1,0l9.1-9.1
			c0.3-0.3,0.4-0.7,0.4-1c0-0.4-0.1-0.8-0.4-1c-0.6-0.6-1.5-0.6-2.1,0l-6.6,6.6V3.9c0-0.8-0.7-1.5-1.5-1.5C45.6,2.4,44.9,3,44.9,3.9
			L44.9,3.9z"/>
		<path  d="M46.4,37.5c-0.6,0-1.2-0.2-1.7-0.7l-9.1-9.1c-0.9-0.9-0.9-2.5,0-3.4s2.5-0.9,3.4,0l5,5V3.9
			c0-1.3,1.1-2.4,2.4-2.4c1.3,0,2.4,1.1,2.4,2.4v25.4l5-5c0.9-0.9,2.5-0.9,3.4,0c0.5,0.5,0.7,1.1,0.7,1.7s-0.3,1.3-0.7,1.7l-9.1,9.1
			C47.7,37.2,47,37.5,46.4,37.5z M37.3,25.4c-0.1,0-0.3,0.1-0.4,0.2c-0.2,0.2-0.2,0.6,0,0.8l9.1,9.1c0.2,0.2,0.6,0.2,0.8,0l9.1-9.1
			c0.1-0.1,0.2-0.2,0.2-0.4s-0.1-0.3-0.2-0.4c-0.2-0.2-0.6-0.2-0.8,0L47,33.7V3.9c0-0.6-1.1-0.6-1.1,0v29.9l-8.2-8.2
			C37.6,25.5,37.4,25.4,37.3,25.4z"/>
	</g>
</g>
</svg>
