<?xml version="1.0" encoding="utf-8"?>
<!-- Generator: Adobe Illustrator 22.0.1, SVG Export Plug-In . SVG Version: 6.00 Build 0)  -->
<svg version="1.1" id="Слой_1" xmlns="http://www.w3.org/2000/svg" xmlns:xlink="http://www.w3.org/1999/xlink" x="0px" y="0px"
	 viewBox="0 0 150 150" style="enable-background:new 0 0 150 150;" xml:space="preserve">

<rect x="21.7" y="12.1" class="st0" width="106.5" height="125.8"/>
<path  d="M109.8,88.9c4.1,0,7.8,1.7,10.4,4.3c2,2,3.5,4.6,4,7.5h8.1c1,0,1.9-0.1,2.7-0.4c1.6-0.5,3-1.5,4-2.8
	c1-1.3,1.5-2.9,1.5-4.6c0-0.9-0.1-1.8-0.4-2.7l-4.3-13.4H120c-1.6,0-2.9-1.3-2.9-2.9c0-1.6,1.3-2.9,2.9-2.9H134l-1.2-3.9
	c-0.8-2.7-2-5.2-3.5-7c-1.3-1.5-3-2.5-5.2-2.5h-11.4v24.1c0,1.6-1.3,2.9-2.9,2.9c-1.6,0-2.9-1.3-2.9-2.9v-36c0-2.4-1-4.5-2.5-6
	c-1.6-1.6-3.7-2.5-6-2.5H27.9c-2.4,0-4.5,1-6,2.5c-1.6,1.6-2.5,3.7-2.5,6V47H48c1.6,0,2.9,1.3,2.9,2.9c0,1.6-1.3,2.9-2.9,2.9H19.3
	v23.1H48c1.6,0,2.9,1.3,2.9,2.9c0,1.6-1.3,2.9-2.9,2.9H19.3v10.5c0,2.4,1,4.5,2.5,6c1.6,1.6,3.7,2.5,6,2.5h5c0.6-2.9,2-5.5,4-7.5
	c2.7-2.7,6.4-4.3,10.4-4.3c4.1,0,7.8,1.7,10.4,4.3c2,2,3.5,4.6,4,7.5h33.4c0.6-2.9,2-5.5,4-7.5C102,90.6,105.7,88.9,109.8,88.9
	L109.8,88.9z M6.6,52.8c-1.6,0-2.9-1.3-2.9-2.9C3.7,48.3,5,47,6.6,47h7v-1.1c0-3.9,1.6-7.5,4.2-10.1c2.6-2.6,6.2-4.2,10.1-4.2h70.4
	c3.9,0,7.5,1.6,10.1,4.2c2.6,2.6,4.2,6.2,4.2,10.1V52h11.4c4.1,0,7.2,1.8,9.6,4.5c2.1,2.4,3.6,5.7,4.6,9c2.4,7.7,4.9,15.3,7.3,23
	c0.5,1.5,0.7,3,0.7,4.4c0,3-1,5.8-2.7,8.1c-1.7,2.3-4.1,4-6.9,4.9c-1.4,0.5-2.9,0.7-4.4,0.7h-8.1c-0.6,2.9-2,5.5-4,7.5
	c-2.7,2.7-6.4,4.3-10.4,4.3c-4.1,0-7.8-1.7-10.4-4.3c-2-2-3.5-4.6-4-7.5H61.9c-0.6,2.9-2,5.5-4,7.5c-2.7,2.7-6.4,4.3-10.4,4.3
	c-4.1,0-7.8-1.7-10.4-4.3c-2-2-3.5-4.6-4-7.5h-5c-3.9,0-7.5-1.6-10.1-4.2c-2.6-2.6-4.2-6.2-4.2-10.1V81.7h-7c-1.6,0-2.9-1.3-2.9-2.9
	c0-1.6,1.3-2.9,2.9-2.9h7V52.8H6.6z M28.9,67.3c-1.6,0-2.9-1.3-2.9-2.9c0-1.6,1.3-2.9,2.9-2.9h41.4c1.6,0,2.9,1.3,2.9,2.9
	c0,1.6-1.3,2.9-2.9,2.9H28.9z M53.7,97.4c1.6,1.6,2.6,3.9,2.6,6.3c0,2.5-1,4.7-2.6,6.3c-1.6,1.6-3.9,2.6-6.3,2.6
	c-2.5,0-4.7-1-6.3-2.6c-1.6-1.6-2.6-3.9-2.6-6.3c0-2.5,1-4.7,2.6-6.3c1.6-1.6,3.9-2.6,6.3-2.6C49.9,94.7,52.1,95.7,53.7,97.4
	L53.7,97.4z M116.1,97.4c1.6,1.6,2.6,3.9,2.6,6.3c0,2.5-1,4.7-2.6,6.3c-1.6,1.6-3.9,2.6-6.3,2.6c-2.5,0-4.7-1-6.3-2.6
	c-1.6-1.6-2.6-3.9-2.6-6.3c0-2.5,1-4.7,2.6-6.3c1.6-1.6,3.9-2.6,6.3-2.6C112.2,94.7,114.5,95.7,116.1,97.4L116.1,97.4z M116.1,97.4"
	/>
</svg>
