<?xml version="1.0" encoding="utf-8"?>
<!-- Generator: Adobe Illustrator 22.0.1, SVG Export Plug-In . SVG Version: 6.00 Build 0)  -->
<svg version="1.1" id="Слой_1" xmlns="http://www.w3.org/2000/svg" xmlns:xlink="http://www.w3.org/1999/xlink" x="0px" y="0px"
	 viewBox="0 0 150 150" style="enable-background:new 0 0 150 150;" xml:space="preserve">

<rect x="21.7" y="12.1" class="st0" width="106.5" height="125.8"/>
<g>
	<path  d="M127.7,116.5l-18.3-32.1c1.9-0.9,3-2.8,2.8-5.1L110.9,68l7.8-8.2c1.7-1.7,1.9-4.7,0.1-6.8l-7.8-8.4l1.6-11.5
		c0.2-2.5-1.5-4.9-4-5.4l-11.2-2.2l-5.4-10c-1.1-2.3-3.8-3.3-6.3-2.3h-0.1L75.2,18L65,13c-1.1-0.6-2.5-0.7-3.7-0.4
		c-1.2,0.4-2.2,1.2-2.8,2.3l-5.6,10l-11.2,2c-2.6,0.5-4.3,2.8-4.1,5.6L39,43.9l-7.8,8.2c-1.7,1.7-1.9,4.7-0.1,6.8l7.8,8.4l-1.6,11.5
		c-0.2,2.2,1.1,4.3,3.2,5.2l-18.4,32.6c-0.5,0.7-0.4,1.7,0,2.5c0.5,0.7,1.2,1.2,2.1,1.2h19.8l9,15.7c0.5,0.7,1.2,1.2,2.1,1.2
		c0.9,0,1.7-0.5,2.1-1.2l17.7-30.1l17.7,30.5c0.5,0.7,1.2,1.2,2.1,1.2c0.9,0,1.7-0.5,2.1-1.2l9-16.1h19.8c0.9,0,1.7-0.5,2.1-1.2
		C128.2,118.3,128.2,117.3,127.7,116.5L127.7,116.5z M55.2,129.8l-7.7-13.2c-0.5-0.7-1.2-1.2-2.1-1.2h-17l17-30.1l7,1.2l5.4,10
		c1.1,2.3,3.8,3.3,6.3,2.3h0.1l5.1-2.3l2.5,4.3L55.2,129.8z M62.3,94.3h-0.1L56.8,84c-0.7-1.2-2-2.2-3.5-2.3l-11.4-2.1l1.6-11.4
		c0.2-1.5-0.2-3.1-1.2-4.1l-7.7-8.4l7.8-8.2c1.1-1.1,1.6-2.6,1.4-4.1l-1.4-11.2c0,0,0-0.1,0.1-0.2l11.2-2c1.4-0.2,2.7-1.1,3.5-2.5
		l5.6-10l10.1,4.9c1.4,0.7,3.1,0.7,4.4,0l10.3-4.7h0.1l5.4,10.3c0.7,1.2,2,2.2,3.3,2.3l11.2,2.2L106.2,44c-0.2,1.5,0.2,3.1,1.2,4.1
		l7.8,8.4l-7.9,8.2c-1.1,1.1-1.6,2.6-1.4,4.1l1.4,11.4l-11.1,1.9c-1.4,0.2-2.7,1.1-3.5,2.5l-5.6,10L77,89.5c-1.4-0.7-3.1-0.7-4.4,0
		L62.3,94.3z M104.3,115.3c-0.9,0-1.7,0.5-2.1,1.2l-7.7,13.6L77.1,100c-0.1-0.4-0.2-0.6-0.5-0.9l-2.7-4.8l0.9-0.4l10.1,4.9
		c0.7,0.4,1.5,0.5,2.2,0.5c1.7,0,3.5-0.9,4.3-2.5l5.6-10l7.4-1.4l16.9,29.8H104.3z M104.3,115.3"/>
	<path  d="M99.5,56c0-13.6-11.1-24.7-24.7-24.7c-13.6,0-24.7,11.1-24.7,24.7c0,13.6,11.1,24.7,24.7,24.7
		C88.4,80.7,99.5,69.6,99.5,56L99.5,56z M74.8,75.8C63.9,75.8,55,66.9,55,56c0-10.9,8.9-19.8,19.8-19.8c10.9,0,19.8,8.9,19.8,19.8
		C94.6,66.9,85.7,75.8,74.8,75.8L74.8,75.8z M74.8,75.8"/>
</g>
</svg>
