<?xml version="1.0" encoding="utf-8"?>
<!-- Generator: Adobe Illustrator 22.0.1, SVG Export Plug-In . SVG Version: 6.00 Build 0)  -->
<svg version="1.1" id="Слой_1" xmlns="http://www.w3.org/2000/svg" xmlns:xlink="http://www.w3.org/1999/xlink" x="0px" y="0px"
	 viewBox="0 0 150 150" style="enable-background:new 0 0 150 150;" xml:space="preserve">
<style type="text/css">
<!--	.st0{fill:#005EFF;}-->
</style>
<g>
	<path  d="M137.3,34.1c0-6.5-5.2-11.8-11.7-11.8h-12.3v-5.7c0-2.2-1.7-3.9-3.9-3.9c-2.2,0-3.9,1.8-3.9,3.9v5.7H44.4v-5.7
		c0-2.2-1.7-3.9-3.9-3.9c-2.1,0-3.9,1.8-3.9,3.9v5.7H24.4c-6.4,0-11.7,5.3-11.7,11.8V52c0,0.2,0.1,0.4,0.1,0.6
		c0,0.2-0.1,0.4-0.1,0.6c0,0,0,0,0,0c0,0,0,0,0,0v72.2c0,6.5,5.2,11.8,11.7,11.8h101.2c6.4,0,11.7-5.3,11.7-11.8V53.3c0,0,0,0,0,0
		c0,0,0,0,0,0c0-0.2-0.1-0.4-0.1-0.6c0-0.2,0.1-0.4,0.1-0.6V34.1z M129.5,125.5c0,2.2-1.7,3.9-3.9,3.9H24.4c-2.1,0-3.9-1.8-3.9-3.9
		V57.2h108.9V125.5z M129.5,49.3H20.5V34.1c0-2.2,1.7-3.9,3.9-3.9h12.2v5.7c0,2.2,1.7,3.9,3.9,3.9c2.1,0,3.9-1.7,3.9-3.9v-5.7h61.1
		v5.7c0,2.2,1.7,3.9,3.9,3.9c2.1,0,3.9-1.8,3.9-3.9v-5.7h12.3c2.1,0,3.9,1.8,3.9,3.9V49.3z M129.5,49.3"/>
	<path  d="M57.9,78.6c0,2.2-1.7,3.9-3.9,3.9c-2.1,0-3.9-1.8-3.9-3.9c0-2.2,1.7-3.9,3.9-3.9
		C56.1,74.6,57.9,76.4,57.9,78.6L57.9,78.6z M57.9,78.6"/>
	<path d="M76.7,78.6c0,2.2-1.7,3.9-3.9,3.9c-2.1,0-3.9-1.8-3.9-3.9c0-2.2,1.7-3.9,3.9-3.9
		C74.9,74.6,76.7,76.4,76.7,78.6L76.7,78.6z M76.7,78.6"/>
	<path  d="M97.7,78.6c0,2.2-1.7,3.9-3.9,3.9c-2.1,0-3.9-1.8-3.9-3.9c0-2.2,1.7-3.9,3.9-3.9C96,74.6,97.7,76.4,97.7,78.6
		L97.7,78.6z M97.7,78.6"/>
	<path  d="M119.2,78.6c0,2.2-1.7,3.9-3.9,3.9c-2.1,0-3.9-1.8-3.9-3.9c0-2.2,1.7-3.9,3.9-3.9
		C117.4,74.6,119.2,76.4,119.2,78.6L119.2,78.6z M119.2,78.6"/>
	<path  d="M38.6,92.1c0,2.2-1.7,3.9-3.9,3.9c-2.1,0-3.9-1.8-3.9-3.9c0-2.2,1.7-3.9,3.9-3.9C36.9,88.2,38.6,90,38.6,92.1
		L38.6,92.1z M38.6,92.1"/>
	<path  d="M57.9,92.1c0,2.2-1.7,3.9-3.9,3.9c-2.1,0-3.9-1.8-3.9-3.9c0-2.2,1.7-3.9,3.9-3.9C56.1,88.2,57.9,90,57.9,92.1
		L57.9,92.1z M57.9,92.1"/>
	<path  d="M76.7,92.1c0,2.2-1.7,3.9-3.9,3.9c-2.1,0-3.9-1.8-3.9-3.9c0-2.2,1.7-3.9,3.9-3.9C74.9,88.2,76.7,90,76.7,92.1
		L76.7,92.1z M76.7,92.1"/>
	<path  d="M97.7,92.1c0,2.2-1.7,3.9-3.9,3.9c-2.1,0-3.9-1.8-3.9-3.9c0-2.2,1.7-3.9,3.9-3.9C96,88.2,97.7,90,97.7,92.1
		L97.7,92.1z M97.7,92.1"/>
	<path  d="M119.2,92.1c0,2.2-1.7,3.9-3.9,3.9c-2.1,0-3.9-1.8-3.9-3.9c0-2.2,1.7-3.9,3.9-3.9
		C117.4,88.2,119.2,90,119.2,92.1L119.2,92.1z M119.2,92.1"/>
	<path  d="M38.6,105.6c0,2.2-1.7,3.9-3.9,3.9c-2.1,0-3.9-1.8-3.9-3.9c0-2.2,1.7-3.9,3.9-3.9
		C36.9,101.7,38.6,103.5,38.6,105.6L38.6,105.6z M38.6,105.6"/>
	<path  d="M57.9,105.6c0,2.2-1.7,3.9-3.9,3.9c-2.1,0-3.9-1.8-3.9-3.9c0-2.2,1.7-3.9,3.9-3.9
		C56.1,101.7,57.9,103.5,57.9,105.6L57.9,105.6z M57.9,105.6"/>
	<path  d="M76.7,105.6c0,2.2-1.7,3.9-3.9,3.9c-2.1,0-3.9-1.8-3.9-3.9c0-2.2,1.7-3.9,3.9-3.9
		C74.9,101.7,76.7,103.5,76.7,105.6L76.7,105.6z M76.7,105.6"/>
	<path d="M97.7,105.6c0,2.2-1.7,3.9-3.9,3.9c-2.1,0-3.9-1.8-3.9-3.9c0-2.2,1.7-3.9,3.9-3.9
		C96,101.7,97.7,103.5,97.7,105.6L97.7,105.6z M97.7,105.6"/>
	<path  d="M119.2,105.6c0,2.2-1.7,3.9-3.9,3.9c-2.1,0-3.9-1.8-3.9-3.9c0-2.2,1.7-3.9,3.9-3.9
		C117.4,101.7,119.2,103.5,119.2,105.6L119.2,105.6z M119.2,105.6"/>
	<path  d="M38.6,119.2c0,2.2-1.7,3.9-3.9,3.9c-2.1,0-3.9-1.7-3.9-3.9c0-2.2,1.7-3.9,3.9-3.9
		C36.9,115.3,38.6,117.1,38.6,119.2L38.6,119.2z M38.6,119.2"/>
	<path  d="M57.9,119.2c0,2.2-1.7,3.9-3.9,3.9c-2.1,0-3.9-1.7-3.9-3.9c0-2.2,1.7-3.9,3.9-3.9
		C56.1,115.3,57.9,117.1,57.9,119.2L57.9,119.2z M57.9,119.2"/>
	<path  d="M76.7,119.2c0,2.2-1.7,3.9-3.9,3.9c-2.1,0-3.9-1.7-3.9-3.9c0-2.2,1.7-3.9,3.9-3.9
		C74.9,115.3,76.7,117.1,76.7,119.2L76.7,119.2z M76.7,119.2"/>
</g>
</svg>
