<?xml version="1.0" encoding="utf-8"?>
<!-- Generator: Adobe Illustrator 22.0.1, SVG Export Plug-In . SVG Version: 6.00 Build 0)  -->
<svg version="1.1" id="Слой_1" xmlns="http://www.w3.org/2000/svg" xmlns:xlink="http://www.w3.org/1999/xlink" x="0px" y="0px"
	 viewBox="0 0 150 150" style="enable-background:new 0 0 150 150;" xml:space="preserve">
<rect x="21.7" y="12.1" class="st0" width="106.5" height="125.8"/>
<rect x="-135" y="-128.7" class="st0" width="409" height="410.9"/>
<g>
	<path  d="M70,95.5c0.9-0.9,0.9-2.5,0-3.4c-0.9-0.9-2.5-0.9-3.4,0c-0.9,0.9-0.9,2.5,0,3.4C67.6,96.4,69.1,96.4,70,95.5
		L70,95.5z M70,95.5"/>
	<path  d="M58.7,38.5c0,14.6,11.8,26.4,26.4,26.4c14.6,0,26.4-11.8,26.4-26.4c0-14.6-11.8-26.4-26.4-26.4
		C70.5,12.1,58.7,23.9,58.7,38.5L58.7,38.5z M106.7,38.5c0,11.9-9.7,21.6-21.6,21.6c-11.9,0-21.6-9.7-21.6-21.6
		c0-11.9,9.7-21.6,21.6-21.6C97,16.9,106.7,26.6,106.7,38.5L106.7,38.5z M106.7,38.5"/>
	<path  d="M41.2,134.3c0.9,0.9,2.4,0.9,3.4,0l11.6-11.5c2-2,2.6-4.9,1.7-7.4l2.5-2.4c1.3-1.3,3.1-2,5-2h31.9
		c5.7,0,11-2.2,15.1-6.1c0.2-0.2-1.3,1.5,21.8-26c3.4-4,2.9-10.1-1.1-13.5c-4-3.4-10-2.9-13.5,1.1L105.4,81
		c-1.8-2.2-4.5-3.6-7.5-3.6H71.2c-3.8-1.6-7.9-2.4-12-2.4c-11.6,0-21.7,5.3-27.1,15.3c-2.3-0.4-4.7,0.3-6.4,2l-11.4,11.5
		c-0.9,0.9-0.9,2.4,0,3.4L41.2,134.3z M59.2,79.8c3.7,0,7.2,0.7,10.6,2.2c0.3,0.1,0.6,0.2,1,0.2h27.3c2.6,0,4.8,2.1,4.8,4.8
		c0,2.6-2.2,4.8-4.8,4.8H78.4c-1.3,0-2.4,1.1-2.4,2.4c0,1.3,1.1,2.4,2.4,2.4h19.6c5.3,0,9.6-4.3,9.6-9.6c0-0.4,0-0.8-0.1-1.3
		c13.7-14.1,15.6-16.1,15.7-16.2c1.7-2,4.7-2.3,6.8-0.6c2,1.7,2.3,4.7,0.6,6.8L109,101.5c-3.1,3-7.3,4.7-11.6,4.7H65.4
		c-3.1,0-6.1,1.2-8.3,3.4l-2,2L36.3,92.7C40.7,84.5,48.9,79.8,59.2,79.8L59.2,79.8z M29.1,95.7c0.8-0.8,2-0.9,3-0.3
		c0.4,0.3-0.8-0.8,20.8,20.7c1,1,0.9,2.5,0,3.4l-9.9,9.8l-23.6-23.8L29.1,95.7z M29.1,95.7"/>
	<g>
		<path  d="M85.9,28h-5.1v11.4h-1.3c-0.7,0-1.3,0.6-1.3,1.3v0h2.5v2.5h-2.5v1.3h2.5v3.8h1.3v-3.8h4.5v-1.3h-4.5v-2.5h3.8
			c0,0,0.2,0,0.6,0c1.1,0,3.6-0.2,5.3-1.8c1.2-1.1,1.8-2.7,1.8-4.6s-0.6-3.5-1.8-4.6C89.5,27.7,86,28,85.9,28L85.9,28z M90.9,38
			c-1.8,1.7-4.9,1.4-5,1.4h-3.8V29.3H86c0,0,3.1-0.3,4.9,1.4c0.9,0.9,1.4,2.1,1.4,3.7C92.3,35.9,91.8,37.2,90.9,38L90.9,38z
			 M90.9,38"/>
		<path  d="M82.1,48.8h-1.3c-0.2,0-0.5-0.2-0.5-0.5V45h-2.1c-0.2,0-0.5-0.2-0.5-0.5v-1.3c0-0.2,0.2-0.5,0.5-0.5h2.1v-1.6
			h-2.1c-0.2,0-0.5-0.2-0.5-0.5c0-1,0.8-1.7,1.7-1.7h0.8V28c0-0.2,0.2-0.5,0.5-0.5h5.1c0.5,0,3.9-0.2,6.1,1.9c1.3,1.2,2,2.9,2,4.9
			c0,2.1-0.7,3.7-2,4.9c-1.8,1.6-4.3,1.9-5.6,1.9c-0.3,0-0.5,0-0.6,0h-3.3v1.6h4c0.2,0,0.5,0.2,0.5,0.5v1.3c0,0.2-0.2,0.5-0.5,0.5
			h-4v3.4C82.6,48.6,82.4,48.8,82.1,48.8z M81.3,47.9h0.4v-3.4c0-0.2,0.2-0.5,0.5-0.5h4v-0.4h-4c-0.2,0-0.5-0.2-0.5-0.5v-2.5
			c0-0.2,0.2-0.5,0.5-0.5h3.8c0,0,0,0,0,0c0,0,0.2,0,0.5,0c1,0,3.3-0.2,5-1.7c1.1-1,1.7-2.5,1.7-4.3c0-1.8-0.6-3.3-1.7-4.3
			c-2.1-1.9-5.4-1.6-5.4-1.6c0,0,0,0-0.1,0h-4.6v11c0,0.2-0.2,0.5-0.5,0.5h-1.3c-0.3,0-0.5,0.1-0.7,0.4h2c0.2,0,0.5,0.2,0.5,0.5v2.5
			c0,0.2-0.2,0.5-0.5,0.5h-2.1v0.4h2.1c0.2,0,0.5,0.2,0.5,0.5V47.9z M86.4,39.9c-0.3,0-0.4,0-0.5,0l-3.8,0c-0.2,0-0.5-0.2-0.5-0.5
			V29.3c0-0.2,0.2-0.5,0.5-0.5H86c0.3,0,3.3-0.2,5.2,1.5c1,0.9,1.6,2.3,1.6,4c0,1.7-0.5,3.1-1.5,4C89.7,39.7,87.4,39.9,86.4,39.9z
			 M82.6,39h3.4c0,0,0,0,0,0c0.3,0,3,0.2,4.6-1.3c0,0,0,0,0,0c0.8-0.8,1.3-1.9,1.3-3.3c0-1.4-0.4-2.6-1.3-3.3
			c-1.7-1.5-4.4-1.3-4.6-1.3c0,0,0,0,0,0h-3.4V39z"/>
	</g>
</g>
</svg>
