<?xml version="1.0" encoding="utf-8"?>
<!-- Generator: Adobe Illustrator 22.0.1, SVG Export Plug-In . SVG Version: 6.00 Build 0)  -->
<svg version="1.1" id="Слой_1" xmlns="http://www.w3.org/2000/svg" xmlns:xlink="http://www.w3.org/1999/xlink" x="0px" y="0px"
	 viewBox="0 0 150 150" style="enable-background:new 0 0 150 150;" xml:space="preserve">

<rect x="21.7" y="12.1" class="st0" width="106.5" height="125.8"/>
<path  d="M135.9,48.5c0-13.6-11.1-24.7-24.7-24.7H38.8c-13.6,0-24.7,11.1-24.7,24.7V89c0,13.6,11.1,24.7,24.7,24.7h4
	l8.9,11.3c0.6,0.8,1.5,1.2,2.4,1.2c1,0,1.9-0.4,2.4-1.2l8.9-11.3h45.8c13.6,0,24.7-11.1,24.7-24.7V48.5z M88,30h21.3L88,51.3V30z
	 M62,30v21.3L40.7,30H62z M20.3,48.5c0-7.8,4.9-14.8,12.2-17.4l0.3-0.1l24.8,24.8H20.3V48.5z M32.8,106.5l-0.3-0.1
	c-7.3-2.6-12.2-9.6-12.2-17.4v-7.2h37.3L32.8,106.5z M62,108.2l-0.2,0.1c-0.1,0.1-0.2,0.2-0.3,0.4l0,0l-7.4,9.4l-7.4-9.4
	c-0.6-0.8-1.5-1.2-2.5-1.2h-3.6L62,86.2V108.2z M88,107.5V86.2l21.3,21.3H88z M129.7,89c0,7.8-4.9,14.8-12.2,17.4l-0.3,0.1
	L92.4,81.8h37.3V89z M129.7,75.5H84.9c-1.7,0-3.1,1.4-3.1,3.1v28.8H68.2V78.7c0-1.7-1.4-3.1-3.1-3.1H20.3V62h44.8
	c1.7,0,3.1-1.4,3.1-3.1V30h13.6v28.9c0,1.7,1.4,3.1,3.1,3.1h44.8V75.5z M129.7,55.7H92.4L117.2,31l0.3,0.1
	c7.3,2.6,12.2,9.6,12.2,17.4V55.7z"/>
</svg>
