<?xml version="1.0" encoding="utf-8"?>
<!-- Generator: Adobe Illustrator 22.0.1, SVG Export Plug-In . SVG Version: 6.00 Build 0)  -->
<svg version="1.1" id="Слой_1" xmlns="http://www.w3.org/2000/svg" xmlns:xlink="http://www.w3.org/1999/xlink" x="0px" y="0px"
	 viewBox="0 0 150 150" style="enable-background:new 0 0 150 150;" xml:space="preserve">
<style type="text/css">
	.st0{fill:none;}
.st1{fill:#005EFF;}
</style>
<rect x="21.7" y="12.1" class="st0" width="106.5" height="125.8"/>
<rect x="-135" y="-128.7" class="st0" width="409" height="410.9"/>
<g>
	<path  d="M16.4,26.3h13.4l19.1,69.1c0.5,2,2.4,3.4,4.5,3.4h58.8c1.9,0,3.5-1.1,4.3-2.8l21.4-49.2
		c0.6-1.5,0.5-3.1-0.4-4.4c-0.9-1.3-2.3-2.1-3.9-2.1H68.7c-2.6,0-4.7,2.1-4.7,4.7c0,2.6,2.1,4.7,4.7,4.7h57.7l-17.3,39.8H57
		L37.9,20.3c-0.5-2-2.4-3.4-4.5-3.4H16.4c-2.6,0-4.7,2.1-4.7,4.7C11.7,24.1,13.8,26.3,16.4,26.3L16.4,26.3z M16.4,26.3"/>
	<path  d="M49,131.7c5.9,0,10.6-4.8,10.6-10.6s-4.8-10.6-10.6-10.6c-5.9,0-10.6,4.8-10.6,10.6S43.2,131.7,49,131.7
		L49,131.7z M49,131.7"/>
	<path  d="M115.3,131.7h0.8c2.8-0.2,5.4-1.5,7.3-3.7c1.9-2.1,2.7-4.8,2.6-7.7c-0.4-5.8-5.5-10.2-11.3-9.8
		c-5.9,0.4-10.2,5.5-9.8,11.3C105.2,127.4,109.8,131.7,115.3,131.7L115.3,131.7z M115.3,131.7"/>
</g>
</svg>
