<?xml version="1.0" encoding="utf-8"?>
<!-- Generator: Adobe Illustrator 22.0.1, SVG Export Plug-In . SVG Version: 6.00 Build 0)  -->
<svg version="1.1" id="Слой_1" xmlns="http://www.w3.org/2000/svg" xmlns:xlink="http://www.w3.org/1999/xlink" x="0px" y="0px"
	 viewBox="0 0 117.9 98.9" style="enable-background:new 0 0 117.9 98.9;" xml:space="preserve">
<style type="text/css">
	.st0{fill:none;}
	.st1{fill:#005EFF;}
</style>
<rect x="6" y="-13.5" class="st0" width="106.5" height="125.8"/>
<path class="st1" d="M49.7,86.9h44.8c13.1,0,23.7-10.6,23.7-23.7V23.7C118.1,10.6,107.5,0,94.4,0H24C10.9,0.1,0.3,10.7,0.3,23.7
	v39.4c0,13.1,10.6,23.7,23.7,23.7H28l8.8,11.1c0.5,0.7,1.2,1,2.1,1c0.9,0,1.6-0.4,2-1L49.7,86.9z M71.4,81.6v-22l22,22H71.4z
	 M112.9,63.2c0,7.8-4.9,14.7-12.1,17.3l-0.5,0.2l-25-24.9h37.6V63.2z M100.3,6.3l0.5,0.2c7.3,2.6,12.1,9.5,12.1,17.3v7.4H75.3
	L100.3,6.3z M71.4,5.4h22l-22,22V5.4z M47,5.4v22l-22-22H47z M5.5,23.7c0-7.8,4.9-14.7,12.1-17.3l0.5-0.2l24.9,24.9H5.5V23.7z
	 M5.5,36.5h44c1.5,0,2.7-1.2,2.7-2.7V5.4h14v28.5c0,1.5,1.2,2.7,2.7,2.7h44v13.8h-44c-1.5,0-2.7,1.2-2.7,2.7v28.4h-14V53.2
	c0-1.5-1.2-2.7-2.7-2.7h-44C5.5,50.5,5.5,36.5,5.5,36.5z M18.2,80.6l-0.5-0.2c-7.3-2.6-12.1-9.5-12.1-17.3v-7.4h37.6L18.2,80.6z
	 M38.8,92.1l-7.5-9.5c-0.5-0.7-1.3-1-2.1-1h-4.4l22.1-22v22.5l-0.3,0.2c-0.1,0.1-0.1,0.1-0.2,0.3L38.8,92.1z"/>
</svg>
