<?xml version="1.0" encoding="utf-8"?>
<!-- Generator: Adobe Illustrator 22.0.1, SVG Export Plug-In . SVG Version: 6.00 Build 0)  -->
<svg version="1.1" id="Слой_1" xmlns="http://www.w3.org/2000/svg" xmlns:xlink="http://www.w3.org/1999/xlink" x="0px" y="0px"
	 viewBox="0 0 150 150" style="enable-background:new 0 0 150 150;" xml:space="preserve">
<style type="text/css">
	.st0{fill:#005EFF;}
</style>
<path class="st0" d="M47.6,83.1H7c-1.6,0-2.9-1.3-2.9-2.9c0-1.6,1.3-2.9,2.9-2.9h40.6c1.6,0,2.9,1.3,2.9,2.9
	C50.5,81.8,49.2,83.1,47.6,83.1z"/>
<path class="st0" d="M144.1,83.1h-40.6c-1.6,0-2.9-1.3-2.9-2.9c0-1.6,1.3-2.9,2.9-2.9h40.6c1.6,0,2.9,1.3,2.9,2.9
	C147,81.8,145.7,83.1,144.1,83.1z"/>
<path class="st0" d="M96.5,72.1H55.9c-1.6,0-2.9-1.3-2.9-2.9s1.3-2.9,2.9-2.9h40.6c1.6,0,2.9,1.3,2.9,2.9S98.1,72.1,96.5,72.1z"/>
<path class="st0" d="M75.3,86.2l-8.4,8.4c-0.2,0.2-0.4,0.6-0.4,0.9c0,0.3,0.1,0.7,0.4,0.9l0.8,0.8c0.2,0.2,0.6,0.4,0.9,0.4
	c0.3,0,0.7-0.1,0.9-0.4l4.9-4.9v15.6c0,0.7,0.6,1.3,1.3,1.3h1.1c0.7,0,1.3-0.6,1.3-1.3V92.2l4.9,5c0.2,0.2,0.6,0.4,0.9,0.4
	c0.3,0,0.7-0.1,0.9-0.4l0.8-0.8c0.2-0.2,0.4-0.6,0.4-0.9c0-0.3-0.1-0.7-0.4-0.9l-8.4-8.4c-0.2-0.2-0.6-0.4-0.9-0.4
	C75.9,85.8,75.5,85.9,75.3,86.2"/>
<path class="st0" d="M124.8,65.6l8.4-8.4c0.2-0.2,0.4-0.6,0.4-0.9c0-0.3-0.1-0.7-0.4-0.9l-0.8-0.8c-0.2-0.2-0.6-0.4-0.9-0.4
	c-0.3,0-0.7,0.1-0.9,0.4l-4.9,4.9V43.9c0-0.7-0.6-1.3-1.3-1.3h-1.1c-0.7,0-1.3,0.6-1.3,1.3v15.7l-4.9-5c-0.2-0.2-0.6-0.4-0.9-0.4
	c-0.3,0-0.7,0.1-0.9,0.4l-0.8,0.8c-0.2,0.2-0.4,0.6-0.4,0.9c0,0.3,0.1,0.7,0.4,0.9l8.4,8.4c0.2,0.2,0.6,0.4,0.9,0.4
	C124.2,66,124.5,65.8,124.8,65.6"/>
<path class="st0" d="M28.2,65.6l8.4-8.4c0.2-0.2,0.4-0.6,0.4-0.9c0-0.3-0.1-0.7-0.4-0.9l-0.8-0.8c-0.2-0.2-0.6-0.4-0.9-0.4
	c-0.3,0-0.7,0.1-0.9,0.4l-4.9,4.9V43.9c0-0.7-0.6-1.3-1.3-1.3h-1.1c-0.7,0-1.3,0.6-1.3,1.3v15.7l-4.9-5c-0.2-0.2-0.6-0.4-0.9-0.4
	c-0.3,0-0.7,0.1-0.9,0.4l-0.8,0.8c-0.2,0.2-0.4,0.6-0.4,0.9c0,0.3,0.1,0.7,0.4,0.9l8.4,8.4c0.2,0.2,0.6,0.4,0.9,0.4
	C27.6,66,27.9,65.8,28.2,65.6"/>
</svg>
