<?xml version="1.0" encoding="utf-8"?>
<!-- Generator: Adobe Illustrator 22.0.1, SVG Export Plug-In . SVG Version: 6.00 Build 0)  -->
<svg version="1.1" id="Слой_1" xmlns="http://www.w3.org/2000/svg" xmlns:xlink="http://www.w3.org/1999/xlink" x="0px" y="0px"
	 viewBox="0 0 91.3 95.3" style="enable-background:new 0 0 91.3 95.3;" xml:space="preserve">
<style type="text/css">
	.st0{fill:#005EFF;}
</style>
<g>
	<path class="st0" d="M5,52.6h67.7c9.8,0,17.8-8,17.8-17.8S82.5,17,72.7,17c-1,0-7.2,0.1-11.9,4.6c-3.1,3.1-4.7,7.3-4.7,12.5
		c0,2.3,1.9,4.2,4.2,4.2c2.3,0,4.2-1.9,4.2-4.2c0-2.9,0.7-5,2.2-6.5c2.2-2.2,5.7-2.3,6-2.3c0,0,0,0,0.1,0c5.2,0,9.4,4.2,9.4,9.4
		s-4.2,9.4-9.4,9.4H5c-2.3,0-4.2,1.9-4.2,4.2C0.8,50.7,2.7,52.6,5,52.6L5,52.6z"/>
	<path class="st0" d="M5,36.2h32.3c9.8,0,17.8-8,17.8-17.8s-8-17.8-17.8-17.8c-1,0-7.2,0.1-11.9,4.6c-3.1,3.1-4.7,7.3-4.7,12.5
		c0,2.3,1.9,4.2,4.2,4.2s4.2-1.9,4.2-4.2c0-2.9,0.7-5,2.2-6.5c2.2-2.2,5.7-2.3,6-2.3c0,0,0,0,0.1,0c5.2,0,9.4,4.2,9.4,9.4
		s-4.2,9.4-9.4,9.4H5c-2.3,0-4.2,1.9-4.2,4.2S2.7,36.2,5,36.2L5,36.2z"/>
	<path class="st0" d="M72.7,59.8H5c-2.3,0-4.2,1.9-4.2,4.2c0,2.3,1.9,4.2,4.2,4.2h67.7c5.2,0,9.4,4.2,9.4,9.4c0,5.2-4.2,9.4-9.4,9.4
		c-0.1,0,0,0-0.1,0c-0.3,0-3.8-0.1-6-2.3c-1.4-1.4-2.2-3.6-2.2-6.5c0-2.3-1.9-4.2-4.2-4.2c-2.3,0-4.2,1.9-4.2,4.2
		c0,5.2,1.6,9.4,4.7,12.5c4.5,4.4,10.4,4.6,11.8,4.6c0.1,0,0.1,0,0.1,0c9.8,0,17.8-8,17.8-17.8C90.5,67.8,82.5,59.8,72.7,59.8
		L72.7,59.8z"/>
</g>
</svg>
