<?xml version="1.0" encoding="utf-8"?>
<!-- Generator: Adobe Illustrator 22.0.1, SVG Export Plug-In . SVG Version: 6.00 Build 0)  -->
<svg version="1.1" id="Слой_1" xmlns="http://www.w3.org/2000/svg" xmlns:xlink="http://www.w3.org/1999/xlink" x="0px" y="0px"
	 viewBox="0 0 150 91.1" style="enable-background:new 0 0 150 91.1;" xml:space="preserve">
<style type="text/css">
	.st0{fill:#005EFF;}
</style>
<g>
	<path class="st0" d="M147.1,60.1c-2.5-7.8-5-15.6-7.5-23.4c-1-3.4-2.5-6.7-4.7-9.2c-2.4-2.8-5.5-4.6-9.7-4.6h-11.6v-6.2
		c0-4-1.7-7.7-4.3-10.3C106.7,3.7,103,2.1,99,2.1H27.3c-4,0-7.7,1.7-10.3,4.3c-2.7,2.6-4.3,6.3-4.3,10.3v1.2H5.6
		c-1.6,0-2.9,1.3-2.9,2.9c0,1.6,1.3,2.9,2.9,2.9h7.1v23.6H5.6c-1.6,0-2.9,1.3-2.9,2.9s1.3,2.9,2.9,2.9h7.3v10.8
		c0,4,1.7,7.7,4.3,10.3c2.6,2.7,6.3,4.3,10.3,4.3h5.1c0.6,3,2,5.6,4.1,7.7c2.7,2.7,6.5,4.4,10.6,4.4s7.9-1.7,10.6-4.4
		c2-2.1,3.5-4.7,4.1-7.7h33.9c0.6,3,2,5.6,4.1,7.7c2.7,2.7,6.5,4.4,10.6,4.4s7.9-1.7,10.6-4.4c2-2.1,3.5-4.7,4.1-7.7h8.3
		c1.5,0,3.1-0.2,4.5-0.7c2.9-0.9,5.3-2.7,7-5s2.7-5.1,2.7-8.2C147.8,63.2,147.6,61.6,147.1,60.1z M47.2,84.7c-5.1,0-9.2-4.1-9.2-9.2
		s4.1-9.2,9.2-9.2s9.2,4.1,9.2,9.2S52.3,84.7,47.2,84.7z M110.7,84.7c-5.1,0-9.2-4.1-9.2-9.2s4.1-9.2,9.2-9.2s9.2,4.1,9.2,9.2
		S115.8,84.7,110.7,84.7z M140.7,69.3c-1,1.3-2.4,2.4-4.1,2.9c-0.9,0.3-1.8,0.4-2.8,0.4h-8.3c-0.6-3-2-5.6-4.1-7.7
		c-2.7-2.7-6.5-4.4-10.6-4.4c-4.2,0-7.9,1.6-10.7,4.2c-2,2.1-3.5,4.7-4.1,7.7H62c-0.6-3-2-5.6-4.1-7.7c-2.7-2.7-6.5-4.4-10.6-4.4
		s-7.9,1.7-10.6,4.4c-2,2.1-3.5,4.7-4.1,7.7h-5.1c-2.4,0-4.6-1-6.2-2.6c-1.6-1.6-2.6-3.8-2.6-6.2V52.9h29.2c1.6,0,2.9-1.3,2.9-2.9
		s-1.3-2.9-2.9-2.9H18.7V23.6h29.1c1.6,0,2.9-1.3,2.9-2.9c0-1.6-1.3-2.9-2.9-2.9H18.6v-1.2c0-2.4,1-4.6,2.6-6.2
		c1.6-1.6,3.8-2.6,6.2-2.6h71.8c2.4,0,4.6,1,6.2,2.6s2.6,3.8,2.6,6.2v36.9c0,1.6,1.3,2.9,2.9,2.9s2.9-1.3,2.9-2.9V29h11.6
		c2.3,0,4,1,5.3,2.5c1.6,1.8,2.7,4.4,3.6,7.1l1.3,3.9h-14.3c-1.6,0-2.9,1.3-2.9,2.9s1.3,2.9,2.9,2.9h16.2l4.3,13.6
		c0.3,0.9,0.4,1.8,0.4,2.7C142.2,66.3,141.7,68,140.7,69.3z"/>
	<path class="st0" d="M70.6,32.6H28.4c-1.6,0-2.9,1.3-2.9,2.9s1.3,2.9,2.9,2.9h42.2c1.6,0,2.9-1.3,2.9-2.9S72.2,32.6,70.6,32.6z"/>
</g>
</svg>
