<?xml version="1.0" encoding="utf-8"?>
<!-- Generator: Adobe Illustrator 22.0.1, SVG Export Plug-In . SVG Version: 6.00 Build 0)  -->
<svg version="1.1" id="Слой_1" xmlns="http://www.w3.org/2000/svg" xmlns:xlink="http://www.w3.org/1999/xlink" x="0px" y="0px"
	 viewBox="0 0 107.7 124.8" style="enable-background:new 0 0 107.7 124.8;" xml:space="preserve">
<style type="text/css">
	.st0{fill:none;}
	.st1{fill:#005EFF;}
</style>
<rect x="1" y="-0.5" class="st0" width="106.5" height="125.8"/>
<path class="st1" d="M106.9,103.9L88.6,71.8c1.9-0.9,3-2.8,2.8-5.1l-1.3-11.3l7.8-8.2c1.7-1.7,1.9-4.7,0.1-6.8L90.3,32l1.6-11.5
	c0.2-2.5-1.5-4.9-4-5.4l-11.2-2.2l-5.4-10c-1.1-2.3-3.8-3.3-6.3-2.3h-0.1L54.4,5.4l-10.2-5c-1.1-0.6-2.5-0.7-3.7-0.4
	c-1.2,0.4-2.2,1.2-2.8,2.3l-5.6,10l-11.2,2c-2.6,0.5-4.3,2.8-4.1,5.6l1.4,11.4l-7.8,8.2c-1.7,1.7-1.9,4.7-0.1,6.8l7.8,8.4l-1.6,11.5
	c-0.2,2.2,1.1,4.3,3.2,5.2L1.4,104c-0.5,0.7-0.4,1.7,0,2.5c0.5,0.7,1.2,1.2,2.1,1.2h19.8l9,15.7c0.5,0.7,1.2,1.2,2.1,1.2
	c0.9,0,1.7-0.5,2.1-1.2l17.7-30.1l17.7,30.5c0.5,0.7,1.2,1.2,2.1,1.2s1.7-0.5,2.1-1.2l9-16.1h19.8c0.9,0,1.7-0.5,2.1-1.2
	C107.4,105.7,107.4,104.7,106.9,103.9L106.9,103.9z M34.5,117.2L26.8,104c-0.5-0.7-1.2-1.2-2.1-1.2h-17l17-30.1l7,1.2l5.4,10
	c1.1,2.3,3.8,3.3,6.3,2.3h0.1l5.1-2.3l2.5,4.3L34.5,117.2z M41.5,81.7L41.5,81.7L36,71.4c-0.7-1.2-2-2.2-3.5-2.3L21.2,67l1.6-11.4
	c0.2-1.5-0.2-3.1-1.2-4.1l-7.7-8.4l7.8-8.2c1.1-1.1,1.6-2.6,1.4-4.1l-1.4-11.2c0,0,0-0.1,0.1-0.2l11.2-2c1.4-0.2,2.7-1.1,3.5-2.5
	l5.6-10l10.1,4.9c1.4,0.7,3.1,0.7,4.4,0l10.3-4.7h0.1l5.4,10.3c0.7,1.2,2,2.2,3.3,2.3l11.2,2.2l-1.4,11.5c-0.2,1.5,0.2,3.1,1.2,4.1
	l7.8,8.4l-7.9,8.2c-1.1,1.1-1.6,2.6-1.4,4.1l1.4,11.4l-11.1,1.9c-1.4,0.2-2.7,1.1-3.5,2.5l-5.6,10l-10.1-5.1c-1.4-0.7-3.1-0.7-4.4,0
	L41.5,81.7z M83.6,102.7c-0.9,0-1.7,0.5-2.1,1.2l-7.7,13.6L56.3,87.4c-0.1-0.4-0.2-0.6-0.5-0.9l-2.7-4.8l0.9-0.4l10.1,4.9
	c0.7,0.4,1.5,0.5,2.2,0.5c1.7,0,3.5-0.9,4.3-2.5l5.6-10l7.4-1.4l16.9,29.8h-17V102.7z"/>
<path class="st1" d="M78.8,43.4c0-13.6-11.1-24.7-24.7-24.7S29.4,29.8,29.4,43.4s11.1,24.7,24.7,24.7S78.8,57,78.8,43.4L78.8,43.4z
	 M54.1,63.2c-10.9,0-19.8-8.9-19.8-19.8s8.9-19.8,19.8-19.8s19.8,8.9,19.8,19.8C73.8,54.3,64.9,63.2,54.1,63.2L54.1,63.2z"/>
</svg>
