<?xml version="1.0" encoding="utf-8"?>
<!-- Generator: Adobe Illustrator 22.0.1, SVG Export Plug-In . SVG Version: 6.00 Build 0)  -->
<svg version="1.1" id="Слой_1" xmlns="http://www.w3.org/2000/svg" xmlns:xlink="http://www.w3.org/1999/xlink" x="0px" y="0px"
	 viewBox="0 0 122.4 125.8" style="enable-background:new 0 0 122.4 125.8;" xml:space="preserve">
<style type="text/css">
	.st0{fill:none;}
	.st1{fill:#005EFF;}
</style>
<rect x="7.9" y="0.5" class="st0" width="106.5" height="125.8"/>
<rect x="-148.8" y="-140.3" class="st0" width="409" height="410.9"/>
<path  d="M119.4,29.4L95.1,5.1c-3.8-4.6-11.4-4.6-16,0L3,81.1c-1.5,2.3-3,5.3-3,8.4c0,3,0.8,6.1,3,8.4l24.3,24.3
	c2.3,1.5,5.3,3,8.4,3c3,0,5.3-1.5,7.6-3l76.1-76.1c1.5-2.3,3-5.3,3-8.4C122.5,34.7,121.7,31.6,119.4,29.4L119.4,29.4z M114.1,40.8
	L38,116.9c-1.5,1.5-3.8,1.5-5.3,0L8.4,92.6c0-0.8-0.8-1.5-0.8-3s0-2.3,0.8-3l8.7-8.7l9.5,9.5c0.8,0.8,2.3,0.8,3,0.8
	c0.8,0,2.3-0.8,2.3-0.8c1.5-1.5,1.5-3.8,0-5.3l-9.5-9.5l12.2-12.2l9.5,9.5c0.8,0.8,2.3,0.8,3,0.8c0.8,0,2.3-0.8,2.3-0.8
	c1.5-1.5,1.5-3.8,0-5.3l-9.5-9.5l12.2-12.2l9.5,9.5c0.8,0.8,2.3,0.8,3,0.8c0.8,0,1.5-0.8,2.3-0.8c1.5-1.5,1.5-3.8,0-5.3l-9.5-9.5
	l12.2-12.2l9.5,9.5c0.8,0.8,2.3,0.8,3,0.8c0.8,0,1.5,0,2.3-0.8c1.5-1.5,1.5-3.8,0-5.3l-9.5-9.5l9.5-9.5c0.8,0,2.3-0.8,3-0.8
	c1.5,0,2.3,0.8,2.3,0.8L114,34.9c0,0.8,0.8,1.5,0.8,3C114.8,39.2,114.8,40,114.1,40.8L114.1,40.8z"/>
</svg>
