<?xml version="1.0" encoding="utf-8"?>
<!-- Generator: Adobe Illustrator 22.0.1, SVG Export Plug-In . SVG Version: 6.00 Build 0)  -->
<svg version="1.1" id="Слой_1" xmlns="http://www.w3.org/2000/svg" xmlns:xlink="http://www.w3.org/1999/xlink" x="0px" y="0px"
	 viewBox="0 0 124.2 83.3" style="enable-background:new 0 0 124.2 83.3;" xml:space="preserve">
<style type="text/css">
	.st0{fill:#005EFF;}
</style>
<path  d="M62.2,41.2c-5.3,0-9.7,4.3-9.7,9.7s4.3,9.7,9.7,9.7c5.3,0,9.6-4.3,9.6-9.7c0-2.5-0.9-4.9-2.7-6.7
	C67.3,42.3,64.8,41.2,62.2,41.2z M62.2,55.3c-2.4,0-4.4-2-4.4-4.4s2-4.3,4.4-4.3s4.3,2,4.3,4.3S64.6,55.3,62.2,55.3z"/>
<g>
	<path  d="M37.1,9.9L37.1,9.9L37.1,9.9z"/>
	<path  d="M0.8,50.9c0,0.8,0.3,1.5,0.9,2.1c1.4,1.3,33,30.1,60.6,30.1s59.3-28.9,60.6-30.1c0.5-0.5,0.9-1.3,0.9-2
		c0-0.8-0.3-1.5-0.8-1.9c-1.3-1.2-33-30.1-60.6-30.1c-2.8,0-6.1,0.4-9.5,1.1l-1.2,0.2l-0.5-1.2c-2.4-5-5.9-10.9-10.5-17.6
		c-0.5-0.7-1.4-1.2-2.2-1.2c-0.8,0-1.7,0.5-2.2,1.2c-3.6,4.7-14.4,21.1-14.4,28.7c0,0.7,0.1,1.4,0.2,2.2l0.2,0.9l-0.8,0.6
		c-11.7,7.4-19.7,15-19.8,15C1,49.5,0.8,50.2,0.8,50.9z M90.5,32.6c12.4,6.6,22.4,14.7,25.1,17.1l1.4,1.2l-1.4,1.2
		c-8.4,7-17.1,12.9-25.1,17.1l-5,2.7l2.9-4.8c3-4.8,4.6-10.4,4.6-16.1c0-5.5-1.6-11.1-4.6-16.1l-2.9-4.8L90.5,32.6z M54.5,30.2
		c0-0.4-0.1-0.9-0.1-1.4L54.2,27l1.3-0.4c2.2-0.6,4.4-0.9,6.7-0.9c14,0,25.3,11.4,25.3,25.3c0,14-11.4,25.4-25.3,25.4
		S36.8,65,36.8,51c0-1,0.1-1.8,0.2-2.7l0.1-1.7h1.4C47.3,46.4,54.5,39,54.5,30.2z M36.8,9.8L36.8,9.8L36.8,9.8l1.3-2.1l1.3,2.1
		c2.3,3.6,9.7,15.8,9.7,20.5c0,6-4.9,10.9-11,10.9c-6,0-10.9-4.9-10.9-10.9C27.1,26.5,32.2,17.2,36.8,9.8z M9.1,49.5
		c3.1-2.5,7.8-6.3,13.6-10.1l1.2-0.8l0.8,1.2c1.5,2.1,3.5,3.8,6,5.1l1,0.6l-0.2,1.1c-0.2,1.4-0.3,2.9-0.3,4.4
		c0,5.7,1.6,11.4,4.6,16.1l2.9,4.9l-5-2.7C21.4,62.7,11.4,54.6,8.6,52.2l-1.2-1.4L9.1,49.5z"/>
</g>
</svg>
