<?xml version="1.0" encoding="utf-8"?>
<!-- Generator: Adobe Illustrator 22.0.1, SVG Export Plug-In . SVG Version: 6.00 Build 0)  -->
<svg version="1.1" id="Слой_1" xmlns="http://www.w3.org/2000/svg" xmlns:xlink="http://www.w3.org/1999/xlink" x="0px" y="0px"
	 viewBox="0 0 150 150" style="enable-background:new 0 0 150 150;" xml:space="preserve">
<style type="text/css">
	.st0{fill-rule:evenodd;clip-rule:evenodd;fill:#FFFFFF;}
</style>
<g>
	<path class="st0" d="M135.3,75c0-33.3-27-60.3-60.3-60.3c-33.3,0-60.3,27-60.3,60.3c0,33.3,27,60.3,60.3,60.3
		C108.3,135.3,135.3,108.3,135.3,75L135.3,75z M20.2,75c0-30.3,24.6-54.8,54.8-54.8s54.8,24.6,54.8,54.8s-24.6,54.8-54.8,54.8
		S20.2,105.3,20.2,75L20.2,75z M20.2,75"/>
	<path class="st0" d="M76.7,100.6V75h8.4l1.3-8.5h-9.8v-4.3c0-2.2,0.7-4.3,3.9-4.3h6.4v-8.5h-9c-7.6,0-9.6,5-9.6,11.9v5.1h-5.2V75
		h5.2v25.6H76.7z M76.7,100.6"/>
</g>
</svg>
