<?xml version="1.0" encoding="utf-8"?>
<!-- Generator: Adobe Illustrator 22.0.1, SVG Export Plug-In . SVG Version: 6.00 Build 0)  -->
<svg version="1.1" id="Слой_1" xmlns="http://www.w3.org/2000/svg" xmlns:xlink="http://www.w3.org/1999/xlink" x="0px" y="0px"
	 viewBox="0 0 150 150" style="enable-background:new 0 0 150 150;" xml:space="preserve">
<style type="text/css">
	.st0{fill-rule:evenodd;clip-rule:evenodd;fill:#FFFFFF;}
	.st1{fill:#FFFFFF;}
</style>
<g>
	<path class="st0" d="M135.2,75c0-33.2-27-60.2-60.2-60.2c-33.2,0-60.2,27-60.2,60.2c0,33.2,27,60.2,60.2,60.2
		C108.2,135.2,135.2,108.2,135.2,75L135.2,75z M20.3,75c0-30.2,24.5-54.7,54.7-54.7s54.7,24.5,54.7,54.7s-24.5,54.7-54.7,54.7
		S20.3,105.2,20.3,75L20.3,75z M20.3,75"/>
	<g>
		<path class="st1" d="M84.8,98.7H64.9c-7.6,0-13.7-6.2-13.7-13.7V65.1c0-7.6,6.2-13.7,13.7-13.7h19.8c7.6,0,13.7,6.2,13.7,13.7
			v19.8C98.5,92.5,92.4,98.7,84.8,98.7z M64.9,55c-5.5,0-10.1,4.5-10.1,10.1v19.8c0,5.5,4.5,10.1,10.1,10.1h19.8
			c5.5,0,10.1-4.5,10.1-10.1V65.1c0-5.5-4.5-10.1-10.1-10.1H64.9z"/>
		<path class="st1" d="M74.9,87.8c-7,0-12.8-5.7-12.8-12.8s5.7-12.8,12.8-12.8c7,0,12.8,5.7,12.8,12.8S81.9,87.8,74.9,87.8z
			 M74.9,65.9c-5,0-9.1,4.1-9.1,9.1s4.1,9.1,9.1,9.1c5,0,9.1-4.1,9.1-9.1S79.9,65.9,74.9,65.9z"/>
		<circle class="st1" cx="87.8" cy="62.1" r="1.8"/>
	</g>
</g>
</svg>
