<?xml version="1.0" encoding="utf-8"?>
<!-- Generator: Adobe Illustrator 22.0.1, SVG Export Plug-In . SVG Version: 6.00 Build 0)  -->
<svg version="1.1" id="Слой_1" xmlns="http://www.w3.org/2000/svg" xmlns:xlink="http://www.w3.org/1999/xlink" x="0px" y="0px"
	 viewBox="0 0 150 150" style="enable-background:new 0 0 150 150;" xml:space="preserve">
<style type="text/css">
	.st0{fill-rule:evenodd;clip-rule:evenodd;fill:#FFFFFF;}
	.st1{fill:#FFFFFF;}
</style>
<g>
	<path class="st0" d="M135.2,72.8c0-33.2-27-60.2-60.2-60.2c-33.2,0-60.2,26.9-60.2,60.2c0,33.2,26.9,60.2,60.2,60.2
		C108.2,133,135.2,106.1,135.2,72.8L135.2,72.8z M20.3,72.8c0-30.2,24.5-54.7,54.7-54.7s54.7,24.5,54.7,54.7s-24.5,54.7-54.7,54.7
		S20.3,103.1,20.3,72.8L20.3,72.8z M20.3,72.8"/>
	<g>
		<path class="st1" d="M75,44.9c-7.7,0-14,6.3-14,14s6.3,14,14,14s14-6.3,14-14S82.7,44.9,75,44.9z M75,65.9c-3.9,0-7-3.1-7-7
			s3.1-7,7-7s7,3.1,7,7S78.9,65.9,75,65.9z"/>
		<path class="st1" d="M93.5,72.5c-1.4-1.4-3.6-1.4-4.9,0c-7.5,7.5-19.7,7.5-27.2,0c-1.4-1.4-3.6-1.4-4.9,0c-1.4,1.4-1.4,3.6,0,4.9
			c4.3,4.3,9.9,6.8,15.5,7.5l-10,10c-1.4,1.4-1.4,3.6,0,4.9c1.4,1.4,3.6,1.4,4.9,0l8-8l8,8c0.7,0.7,1.6,1,2.5,1c0.9,0,1.8-0.3,2.5-1
			c1.4-1.4,1.4-3.6,0-4.9l-10-10c5.7-0.6,11.2-3.1,15.5-7.5C94.9,76,94.9,73.8,93.5,72.5z"/>
	</g>
</g>
</svg>
