<?xml version="1.0" encoding="utf-8"?>
<!-- Generator: Adobe Illustrator 22.0.1, SVG Export Plug-In . SVG Version: 6.00 Build 0)  -->
<svg version="1.1" id="Слой_1" xmlns="http://www.w3.org/2000/svg" xmlns:xlink="http://www.w3.org/1999/xlink" x="0px" y="0px"
	 viewBox="0 0 150 150" style="enable-background:new 0 0 150 150;" xml:space="preserve">
<style type="text/css">
	.st0{fill-rule:evenodd;clip-rule:evenodd;fill:#FFFFFF;}
	.st1{fill:#FFFFFF;}
</style>
<g>
	<path class="st0" d="M132,72.9c0-33.2-27-60.2-60.2-60.2c-33.2,0-60.2,27-60.2,60.2c0,33.2,27,60.2,60.2,60.2
		C105,133.1,132,106.1,132,72.9L132,72.9z M17,72.9c0-30.2,24.5-54.7,54.7-54.7s54.7,24.5,54.7,54.7s-24.5,54.7-54.7,54.7
		S17,103.1,17,72.9L17,72.9z M17,72.9"/>
	<path class="st1" d="M98.4,86.4c-0.1-0.2-0.1-0.3-0.2-0.4c-1-1.9-3-4.1-5.9-6.8l-0.1-0.1l0,0l0,0h0c-1.3-1.3-2.2-2.1-2.5-2.5
		c-0.6-0.8-0.8-1.7-0.4-2.5c0.2-0.6,1.2-2,2.8-4c0.8-1.1,1.5-2,2-2.6c3.6-4.7,5.1-7.8,4.6-9.1L98.4,58c-0.1-0.2-0.4-0.4-1-0.5
		c-0.5-0.2-1.2-0.2-2-0.1l-8.9,0.1c-0.1,0-0.3,0-0.6,0c-0.3,0.1-0.4,0.1-0.4,0.1l-0.2,0.1l-0.1,0.1c-0.1,0.1-0.2,0.2-0.3,0.3
		c-0.1,0.2-0.2,0.3-0.3,0.5c-1,2.5-2.1,4.8-3.3,6.9c-0.8,1.3-1.5,2.4-2.1,3.3c-0.6,0.9-1.2,1.6-1.6,2.1c-0.4,0.4-0.8,0.8-1.2,1.1
		c-0.4,0.3-0.6,0.4-0.8,0.3c-0.2,0-0.4-0.1-0.5-0.1c-0.3-0.2-0.5-0.4-0.7-0.8c-0.2-0.3-0.3-0.7-0.4-1.2C74,69.7,74,69.3,74,69
		c0-0.3,0-0.8,0-1.5c0-0.6,0-1.1,0-1.3c0-0.8,0-1.6,0-2.5c0-0.9,0.1-1.6,0.1-2.2c0-0.5,0-1.1,0-1.7c0-0.6,0-1.1-0.1-1.4
		c-0.1-0.3-0.2-0.7-0.3-1c-0.1-0.3-0.4-0.6-0.6-0.7c-0.3-0.2-0.6-0.3-1-0.4c-1.1-0.2-2.5-0.4-4.2-0.4c-3.8,0-6.3,0.2-7.4,0.7
		c-0.4,0.2-0.8,0.5-1.2,0.9c-0.4,0.5-0.4,0.7-0.2,0.7c1.2,0.2,2.1,0.6,2.6,1.3l0.2,0.4c0.1,0.3,0.3,0.7,0.4,1.4
		c0.1,0.7,0.2,1.4,0.3,2.3c0.1,1.5,0.1,2.8,0,3.9c-0.1,1.1-0.2,1.9-0.3,2.5c-0.1,0.6-0.2,1.1-0.4,1.5c-0.2,0.4-0.3,0.6-0.4,0.7
		c-0.1,0.1-0.1,0.1-0.2,0.2c-0.3,0.1-0.5,0.2-0.8,0.2c-0.3,0-0.6-0.1-1-0.4c-0.4-0.3-0.8-0.7-1.3-1.2c-0.4-0.5-0.9-1.2-1.5-2.1
		c-0.6-0.9-1.1-2-1.7-3.2l-0.5-0.9c-0.3-0.6-0.7-1.4-1.3-2.5c-0.5-1.1-1-2.2-1.4-3.2c-0.2-0.4-0.4-0.8-0.7-1L51,57.8
		c-0.1-0.1-0.3-0.2-0.5-0.3c-0.2-0.1-0.5-0.2-0.7-0.2l-8.5,0.1c-0.9,0-1.5,0.2-1.8,0.6l-0.1,0.2c-0.1,0.1-0.1,0.3-0.1,0.5
		c0,0.2,0.1,0.5,0.2,0.8c1.2,2.9,2.6,5.7,4,8.4c1.5,2.7,2.7,4.9,3.8,6.5c1.1,1.6,2.2,3.2,3.3,4.7c1.1,1.5,1.8,2.4,2.2,2.8
		c0.4,0.4,0.6,0.7,0.8,0.9l0.8,0.7c0.5,0.5,1.2,1.1,2.2,1.8c1,0.7,2,1.4,3.2,2c1.2,0.7,2.5,1.2,4.1,1.6c1.5,0.4,3,0.6,4.5,0.5H72
		c0.7-0.1,1.3-0.3,1.6-0.7l0.1-0.2c0.1-0.1,0.2-0.3,0.2-0.6c0.1-0.3,0.1-0.5,0.1-0.8c0-0.9,0-1.7,0.2-2.4c0.2-0.7,0.3-1.2,0.5-1.6
		c0.2-0.4,0.4-0.7,0.7-0.9c0.2-0.2,0.4-0.4,0.5-0.4c0.1-0.1,0.2-0.1,0.2-0.1c0.5-0.2,1.1,0,1.7,0.5c0.7,0.5,1.3,1.1,1.9,1.8
		c0.6,0.7,1.3,1.5,2.1,2.4c0.8,0.9,1.5,1.5,2.2,2l0.6,0.4c0.4,0.2,0.9,0.5,1.6,0.7c0.7,0.2,1.2,0.3,1.7,0.2l7.9-0.1
		c0.8,0,1.4-0.1,1.8-0.4c0.4-0.3,0.7-0.5,0.8-0.8c0.1-0.3,0.1-0.7,0-1.1C98.5,86.8,98.4,86.5,98.4,86.4L98.4,86.4z M98.4,86.4"/>
</g>
</svg>
