<?xml version="1.0" encoding="utf-8"?>
<!-- Generator: Adobe Illustrator 22.0.1, SVG Export Plug-In . SVG Version: 6.00 Build 0)  -->
<svg version="1.1" id="Слой_1" xmlns="http://www.w3.org/2000/svg" xmlns:xlink="http://www.w3.org/1999/xlink" x="0px" y="0px"
	 viewBox="0 0 150 150" style="enable-background:new 0 0 150 150;" xml:space="preserve">
<style type="text/css">
	.st0{fill-rule:evenodd;clip-rule:evenodd;fill:#FFFFFF;}
	.st1{fill:none;}
</style>
<g>
	<path class="st0" d="M135.2,75c0-33.2-27-60.2-60.2-60.2c-33.2,0-60.2,27-60.2,60.2c0,33.2,27,60.2,60.2,60.2
		C108.2,135.2,135.2,108.2,135.2,75L135.2,75z M20.3,75c0-30.2,24.5-54.7,54.7-54.7s54.7,24.5,54.7,54.7s-24.5,54.7-54.7,54.7
		S20.3,105.2,20.3,75L20.3,75z M20.3,75"/>
	<path class="st0" d="M100.1,62.3c-0.6-2.8-2.9-4.8-5.7-5.1c-6.5-0.7-13.1-0.7-19.6-0.7c-6.5,0-13.1,0-19.6,0.7
		c-2.7,0.3-5,2.4-5.7,5.1c-0.9,4-0.9,8.3-0.9,12.4c0,4.1,0,8.4,0.9,12.4c0.6,2.8,2.9,4.8,5.7,5.1c6.5,0.7,13.1,0.7,19.6,0.7
		c6.5,0,13.1,0,19.6-0.7c2.7-0.3,5-2.4,5.7-5.1c0.9-4,0.9-8.3,0.9-12.4C101,70.6,101,66.3,100.1,62.3L100.1,62.3z M68.1,82.8V65.5
		c5.5,2.9,11.1,5.8,16.6,8.7C79.2,77.1,73.6,79.9,68.1,82.8L68.1,82.8z M68.1,82.8"/>
	<rect x="48.6" y="56.4" class="st1" width="52.7" height="37.1"/>
</g>
</svg>
