<?xml version="1.0" encoding="utf-8"?>
<!-- Generator: Adobe Illustrator 22.0.1, SVG Export Plug-In . SVG Version: 6.00 Build 0)  -->
<svg version="1.1" id="Слой_1" xmlns="http://www.w3.org/2000/svg" xmlns:xlink="http://www.w3.org/1999/xlink" x="0px" y="0px"
	 viewBox="0 0 123 123.7" style="enable-background:new 0 0 123 123.7;" xml:space="preserve">
<style type="text/css">
	.st0{fill:#FFFFFF;}
</style>
<g>
	<path class="st0" d="M121.9,62c0-33.2-27-60.2-60.2-60.2S1.5,28.8,1.5,62s27,60.2,60.2,60.2S121.9,95.2,121.9,62L121.9,62z M7,62
		C7,31.8,31.5,7.3,61.7,7.3s54.7,24.5,54.7,54.7s-24.5,54.7-54.7,54.7S7,92.2,7,62L7,62z"/>
	<g>
		<path class="st0" d="M71.5,85.7H51.6c-7.6,0-13.7-6.2-13.7-13.7V52.1c0-7.6,6.2-13.7,13.7-13.7h19.8c7.6,0,13.7,6.2,13.7,13.7
			v19.8C85.2,79.5,79.1,85.7,71.5,85.7z M51.6,42c-5.5,0-10.1,4.5-10.1,10.1v19.8C41.5,77.4,46,82,51.6,82h19.8
			c5.5,0,10.1-4.5,10.1-10.1V52.1C81.5,46.6,77,42,71.4,42H51.6z"/>
		<path class="st0" d="M61.6,74.8c-7,0-12.8-5.7-12.8-12.8s5.7-12.8,12.8-12.8c7,0,12.8,5.7,12.8,12.8S68.6,74.8,61.6,74.8z
			 M61.6,52.9c-5,0-9.1,4.1-9.1,9.1s4.1,9.1,9.1,9.1s9.1-4.1,9.1-9.1S66.6,52.9,61.6,52.9z"/>
		<circle class="st0" cx="74.5" cy="49.1" r="1.8"/>
	</g>
</g>
</svg>
