<?xml version="1.0" encoding="utf-8"?>
<!-- Generator: Adobe Illustrator 22.0.1, SVG Export Plug-In . SVG Version: 6.00 Build 0)  -->
<svg version="1.1" id="Слой_1" xmlns="http://www.w3.org/2000/svg" xmlns:xlink="http://www.w3.org/1999/xlink" x="0px" y="0px"
	 viewBox="0 0 124 123.3" style="enable-background:new 0 0 124 123.3;" xml:space="preserve">
<style type="text/css">
	.st0{fill:#FFFFFF;}
</style>
<g>
	<path class="st0" d="M122.2,61.8c0-33.2-27-60.2-60.2-60.2S1.8,28.5,1.8,61.8C1.8,95,28.7,122,62,122
		C95.2,122,122.2,95.1,122.2,61.8L122.2,61.8z M7.3,61.8C7.3,31.6,31.8,7.1,62,7.1s54.7,24.5,54.7,54.7S92.2,116.5,62,116.5
		S7.3,92.1,7.3,61.8L7.3,61.8z"/>
	<g>
		<path class="st0" d="M62,33.9c-7.7,0-14,6.3-14,14s6.3,14,14,14s14-6.3,14-14S69.7,33.9,62,33.9z M62,54.9c-3.9,0-7-3.1-7-7
			s3.1-7,7-7s7,3.1,7,7S65.9,54.9,62,54.9z"/>
		<path class="st0" d="M80.5,61.5c-1.4-1.4-3.6-1.4-4.9,0c-7.5,7.5-19.7,7.5-27.2,0c-1.4-1.4-3.6-1.4-4.9,0c-1.4,1.4-1.4,3.6,0,4.9
			c4.3,4.3,9.9,6.8,15.5,7.5l-10,10c-1.4,1.4-1.4,3.6,0,4.9c1.4,1.4,3.6,1.4,4.9,0l8-8l8,8c0.7,0.7,1.6,1,2.5,1s1.8-0.3,2.5-1
			c1.4-1.4,1.4-3.6,0-4.9l-10-10c5.7-0.6,11.2-3.1,15.5-7.5C81.9,65,81.9,62.8,80.5,61.5z"/>
	</g>
</g>
</svg>
