<?xml version="1.0" encoding="utf-8"?>
<!-- Generator: Adobe Illustrator 22.0.1, SVG Export Plug-In . SVG Version: 6.00 Build 0)  -->
<svg version="1.1" id="Слой_1" xmlns="http://www.w3.org/2000/svg" xmlns:xlink="http://www.w3.org/1999/xlink" x="0px" y="0px"
	 viewBox="0 0 150 150" style="enable-background:new 0 0 150 150;" xml:space="preserve">
<style type="text/css">
<!--	.st0{fill:#005EFF;}-->
</style>
<g>
	<path  d="M38.2,122.2c0-3.5,0.1-7.1-0.1-10.6c-0.1-1.2-0.6-2.6-1.4-3.4c-7.8-7.6-13.2-16.7-15.4-27.3
		c-4.5-22.1,1.8-40.7,19.2-55.2C51.9,16.1,65.3,12.2,80,13.6c13.5,1.2,25.1,6.9,34.5,16.7c10.2,10.6,15.6,23.3,15.6,37.9
		c0,15.4-5.6,28.7-16.6,39.5c-12.1,11.9-26.8,17-43.7,15.7c-1.3-0.1-2.8,0.2-4,0.8c-7.6,3.8-15.1,7.7-22.6,11.6c-3.5,1.8-5,0.9-5-3
		C38.2,129.3,38.2,125.8,38.2,122.2z M43.4,129.7c1-0.5,1.7-0.8,2.3-1.1c6.2-3.2,12.4-6.5,18.7-9.6c1.4-0.7,3.1-0.9,4.6-1
		c2.7-0.1,5.5,0.4,8.2,0.2c13.7-0.8,25.4-6.2,34.6-16.5c15.6-17.1,17.7-42.6,3.7-62.2C102.8,21.8,82,14.5,60.9,20.7
		C41.8,26.4,29.8,39.8,26,59.3c-3.5,17.8,2,33.4,15.3,45.9c1.5,1.4,2.1,2.8,2.1,4.8C43.3,116.5,43.4,122.9,43.4,129.7z"/>
	<path  d="M48.7,59c0-6.2,2.6-11.1,7.3-15c3-2.6,7-2.4,9.8,0.3c2,1.9,3.9,3.8,5.8,5.8c2.9,3,3.1,6.7,0.6,10
		c-2.3,3.1-2.2,4.7,0.5,7.5c1.4,1.4,2.7,2.7,4.1,4.1c2.2,2.1,4.2,2.2,6.5,0.4c4.1-3,7.4-2.8,11,0.7c1.6,1.6,3.2,3.1,4.7,4.7
		c2.8,3,2.9,7.1,0.2,10.2c-8,9.1-20,9.5-28.6,0.9c-5.4-5.4-10.7-10.7-16.1-16.1C50.7,68.7,48.8,64.3,48.7,59z M54,59.3
		c0,3.7,1.2,6.5,4.4,9.7c5.2,5.2,10.4,10.4,15.6,15.7c6.5,6.4,13.9,6.5,20.5,0.2c1.8-1.7,1.8-2.6,0-4.4c-1.2-1.3-2.5-2.5-3.7-3.8
		C89.3,75,88,75,86.3,76.4c-3.8,3.1-8.6,3-12.3-0.3c-1.8-1.6-3.5-3.3-5.2-5.1c-4.2-4.4-4.5-9-0.8-13.9C68.8,56,69,55,68,53.9
		c-1.8-1.9-3.6-3.9-5.6-5.6c-0.6-0.5-2.4-0.5-3.1,0C55.9,51,53.9,54.5,54,59.3z"/>
</g>
</svg>
