<?xml version="1.0" encoding="utf-8"?>
<!-- Generator: Adobe Illustrator 22.0.1, SVG Export Plug-In . SVG Version: 6.00 Build 0)  -->
<svg version="1.1" id="Слой_1" xmlns="http://www.w3.org/2000/svg" xmlns:xlink="http://www.w3.org/1999/xlink" x="0px" y="0px"
	 viewBox="0 0 80.3 76.3" style="enable-background:new 0 0 80.3 76.3;" xml:space="preserve">
<style type="text/css">
	.st0{fill:#005EFF;}
</style>
<g>
	<g>
		<path  d="M39.7,0.5C18.9,0.5,2,17.4,2,38.2s16.9,37.7,37.7,37.7s37.7-16.9,37.7-37.7S60.4,0.5,39.7,0.5L39.7,0.5z
			 M39.7,72.8c-19.1,0-34.6-15.5-34.6-34.6S20.6,3.6,39.7,3.6s34.6,15.5,34.6,34.6S58.7,72.8,39.7,72.8L39.7,72.8z M39.7,72.8"/>
		<path  d="M39.7,76.3c-21,0-38.2-17.1-38.2-38.2S18.6,0,39.7,0s38.2,17.1,38.2,38.2S60.7,76.3,39.7,76.3z M39.7,1
			C19.2,1,2.5,17.7,2.5,38.2c0,20.5,16.7,37.1,37.1,37.1c20.5,0,37.1-16.7,37.1-37.1C76.8,17.7,60.1,1,39.7,1z M39.7,73.3
			c-19.4,0-35.1-15.7-35.1-35.1c0-19.4,15.7-35.1,35.1-35.1c19.4,0,35.1,15.7,35.1,35.1C74.8,57.5,59,73.3,39.7,73.3z M39.7,4.1
			C20.9,4.1,5.6,19.4,5.6,38.2c0,18.8,15.3,34.1,34.1,34.1c18.8,0,34.1-15.3,34.1-34.1C73.7,19.4,58.5,4.1,39.7,4.1z"/>
	</g>
	<g>
		<path  d="M23.7,21.2c2.6-0.5,4,0.1,5.6,0.7c1.3,0.6,2.8,1.2,4.9,1.2c0.7,0,1.5-0.1,2.4-0.2c3.5-0.7,5.1-2.2,6.5-3.6
			c1.3-1.2,2.3-2.3,5-2.8c0.8-0.2,1.4-1,1.2-1.8c-0.2-0.8-1-1.4-1.8-1.2c-3.5,0.7-5.1,2.2-6.5,3.6c-1.3,1.2-2.3,2.3-5,2.8
			c-2.6,0.5-4-0.1-5.6-0.7c-1.8-0.7-3.9-1.6-7.4-0.9c-0.8,0.2-1.4,1-1.2,1.8C22.1,20.9,22.9,21.4,23.7,21.2L23.7,21.2z M23.7,21.2"
			/>
		<path  d="M34.3,23.7c-2.2,0-3.8-0.6-5.1-1.2c-1.6-0.7-2.9-1.2-5.3-0.7h0c-1.1,0.2-2.2-0.5-2.4-1.6
			c-0.2-1.1,0.5-2.2,1.6-2.4c3.7-0.7,5.8,0.2,7.7,1c1.6,0.7,2.9,1.2,5.3,0.7c2.5-0.5,3.4-1.4,4.7-2.6c1.5-1.4,3.1-3,6.8-3.7
			c0.5-0.1,1.1,0,1.5,0.3c0.5,0.3,0.8,0.8,0.9,1.3c0.1,0.5,0,1.1-0.3,1.5c-0.3,0.5-0.8,0.8-1.3,0.9c-2.5,0.5-3.4,1.4-4.7,2.6
			c-1.5,1.4-3.1,3-6.8,3.7C35.9,23.6,35.1,23.7,34.3,23.7z M25.5,20.5c1.6,0,2.8,0.5,4,1c1.3,0.6,2.7,1.1,4.7,1.1
			c0.7,0,1.5-0.1,2.3-0.2c3.4-0.6,4.9-2.1,6.2-3.4c1.3-1.2,2.5-2.4,5.2-2.9c0.3-0.1,0.5-0.2,0.7-0.4c0.2-0.2,0.2-0.5,0.2-0.8
			c-0.1-0.3-0.2-0.5-0.4-0.7C48.2,14,47.9,14,47.7,14c-3.4,0.6-4.9,2.1-6.2,3.4c-1.3,1.2-2.5,2.4-5.2,2.9c-2.8,0.5-4.3-0.1-5.9-0.8
			c-1.7-0.7-3.7-1.5-7.1-0.9c-0.6,0.1-0.9,0.6-0.8,1.2c0.1,0.6,0.6,0.9,1.2,0.8l0,0C24.3,20.6,25,20.5,25.5,20.5z"/>
	</g>
	<g>
		<path  d="M36.6,57.8c-3.4-0.4-4.9-1.9-6.6-3.5c-1.8-1.8-3.9-3.9-8.4-4.4c-0.8-0.1-1.6,0.5-1.7,1.3
			c-0.1,0.8,0.5,1.6,1.3,1.7c3.4,0.4,4.9,1.9,6.6,3.5c1.8,1.8,3.9,3.9,8.4,4.4c0.1,0,0.1,0,0.2,0c0.8,0,1.4-0.6,1.5-1.4
			C38.1,58.6,37.5,57.9,36.6,57.8L36.6,57.8z M36.6,57.8"/>
		<path  d="M36.4,61.3c-0.1,0-0.2,0-0.2,0c-4.6-0.5-6.8-2.7-8.7-4.5c-1.7-1.7-3.1-3-6.3-3.4c-0.5-0.1-1-0.3-1.4-0.8
			c-0.3-0.4-0.5-1-0.4-1.5c0.1-1.1,1.2-1.9,2.3-1.8c4.6,0.5,6.8,2.7,8.7,4.5c1.7,1.7,3.1,3,6.3,3.4h0c1.1,0.1,1.9,1.2,1.8,2.3
			C38.3,60.6,37.5,61.3,36.4,61.3z M21.5,50.3c-0.5,0-1,0.4-1,0.9c0,0.3,0,0.5,0.2,0.8c0.2,0.2,0.4,0.3,0.7,0.4
			c3.6,0.4,5.2,2,6.9,3.7c1.8,1.8,3.8,3.8,8.1,4.3c0,0,0.1,0,0.1,0c0.5,0,1-0.4,1-0.9c0.1-0.6-0.3-1.1-0.9-1.1l0,0
			c-3.6-0.4-5.2-2-6.9-3.7c-1.8-1.8-3.8-3.8-8.1-4.3C21.6,50.3,21.5,50.3,21.5,50.3z"/>
	</g>
	<g>
		<path  d="M60.2,41c-3.4-0.2-5-1.6-6.8-3.2c-1.9-1.7-4.1-3.6-8.6-3.9c-0.8-0.1-1.6,0.6-1.6,1.4
			c-0.1,0.8,0.6,1.6,1.4,1.6c3.4,0.2,5,1.6,6.8,3.2c1.9,1.7,4.1,3.6,8.6,3.9c0,0,0.1,0,0.1,0c0.8,0,1.5-0.6,1.5-1.4
			C61.7,41.8,61.1,41.1,60.2,41L60.2,41z M60.2,41"/>
		<path  d="M60.2,44.6c0,0-0.1,0-0.1,0c-4.6-0.3-6.9-2.3-8.9-4c-1.8-1.6-3.2-2.8-6.5-3c-0.5,0-1-0.3-1.4-0.7
			c-0.4-0.4-0.5-0.9-0.5-1.5c0-0.5,0.3-1,0.7-1.4c0.4-0.4,0.9-0.5,1.5-0.5c4.6,0.3,6.9,2.3,8.9,4c1.8,1.6,3.2,2.8,6.5,3l0,0
			c0.5,0,1,0.3,1.4,0.7c0.4,0.4,0.5,0.9,0.5,1.5C62.1,43.8,61.2,44.6,60.2,44.6z M44.8,34.5c-0.3,0-0.5,0.1-0.7,0.3
			c-0.2,0.2-0.3,0.4-0.3,0.7c0,0.3,0.1,0.5,0.3,0.7c0.2,0.2,0.4,0.3,0.7,0.3c3.6,0.2,5.3,1.7,7.1,3.3c1.9,1.7,4,3.5,8.3,3.8
			c0,0,0,0,0.1,0c0.5,0,1-0.4,1-1c0-0.6-0.4-1-1-1.1c-3.6-0.2-5.3-1.7-7.1-3.3C51.3,36.6,49.1,34.7,44.8,34.5
			C44.8,34.5,44.8,34.5,44.8,34.5z"/>
	</g>
	<g>
		<path  d="M26.1,36c0-3-2.4-5.4-5.4-5.4c-3,0-5.4,2.4-5.4,5.4c0,3,2.4,5.4,5.4,5.4C23.7,41.4,26.1,39,26.1,36L26.1,36z
			 M18.4,36c0-1.3,1-2.3,2.3-2.3c1.3,0,2.3,1,2.3,2.3c0,1.3-1,2.3-2.3,2.3C19.4,38.3,18.4,37.3,18.4,36L18.4,36z M18.4,36"/>
		<path  d="M20.7,41.7c-3.2,0-5.7-2.6-5.7-5.7c0-3.2,2.6-5.7,5.7-5.7s5.7,2.6,5.7,5.7C26.5,39.2,23.9,41.7,20.7,41.7z
			 M20.7,31c-2.7,0-5,2.2-5,5c0,2.7,2.2,5,5,5s5-2.2,5-5C25.7,33.3,23.5,31,20.7,31z M20.7,38.7c-1.5,0-2.7-1.2-2.7-2.7
			c0-1.5,1.2-2.7,2.7-2.7s2.7,1.2,2.7,2.7C23.4,37.5,22.2,38.7,20.7,38.7z M20.7,34.1c-1.1,0-1.9,0.9-1.9,1.9s0.9,1.9,1.9,1.9
			s1.9-0.9,1.9-1.9S21.8,34.1,20.7,34.1z"/>
	</g>
	<g>
		<path  d="M55,30.3c3,0,5.4-2.4,5.4-5.4S58,19.6,55,19.6c-3,0-5.4,2.4-5.4,5.4S52.1,30.3,55,30.3L55,30.3z M55,22.7
			c1.3,0,2.3,1,2.3,2.3c0,1.3-1,2.3-2.3,2.3c-1.3,0-2.3-1-2.3-2.3C52.7,23.7,53.8,22.7,55,22.7L55,22.7z M55,22.7"/>
		<path  d="M55,30.7c-3.2,0-5.7-2.6-5.7-5.7s2.6-5.7,5.7-5.7s5.7,2.6,5.7,5.7S58.2,30.7,55,30.7z M55,20
			c-2.7,0-5,2.2-5,5s2.2,5,5,5c2.7,0,5-2.2,5-5S57.8,20,55,20z M55,27.6c-1.5,0-2.7-1.2-2.7-2.7c0-1.5,1.2-2.7,2.7-2.7
			s2.7,1.2,2.7,2.7C57.7,26.4,56.5,27.6,55,27.6z M55,23c-1.1,0-1.9,0.9-1.9,1.9c0,1.1,0.9,1.9,1.9,1.9s1.9-0.9,1.9-1.9
			C56.9,23.9,56.1,23,55,23z"/>
	</g>
	<g>
		<path d="M44.6,45.4c-3,0-5.4,2.4-5.4,5.4c0,3,2.4,5.4,5.4,5.4c3,0,5.4-2.4,5.4-5.4C50,47.8,47.6,45.4,44.6,45.4
			L44.6,45.4z M44.6,53c-1.3,0-2.3-1-2.3-2.3c0-1.3,1-2.3,2.3-2.3s2.3,1,2.3,2.3C46.9,52,45.9,53,44.6,53L44.6,53z M44.6,53"/>
		<path  d="M44.6,56.5c-3.2,0-5.7-2.6-5.7-5.7s2.6-5.7,5.7-5.7s5.7,2.6,5.7,5.7S47.8,56.5,44.6,56.5z M44.6,45.8
			c-2.7,0-5,2.2-5,5c0,2.7,2.2,5,5,5c2.7,0,5-2.2,5-5C49.6,48,47.3,45.8,44.6,45.8z M44.6,53.4c-1.5,0-2.7-1.2-2.7-2.7
			s1.2-2.7,2.7-2.7c1.5,0,2.7,1.2,2.7,2.7S46.1,53.4,44.6,53.4z M44.6,48.8c-1.1,0-1.9,0.9-1.9,1.9c0,1.1,0.9,1.9,1.9,1.9
			c1.1,0,1.9-0.9,1.9-1.9C46.5,49.7,45.6,48.8,44.6,48.8z"/>
	</g>
</g>
</svg>
