<?xml version="1.0" encoding="utf-8"?>
<!-- Generator: Adobe Illustrator 22.0.1, SVG Export Plug-In . SVG Version: 6.00 Build 0)  -->
<svg version="1.1" id="Слой_1" xmlns="http://www.w3.org/2000/svg" xmlns:xlink="http://www.w3.org/1999/xlink" x="0px" y="0px"
	 viewBox="0 0 80.3 76.3" style="enable-background:new 0 0 80.3 76.3;" xml:space="preserve">
<style type="text/css">
	.st0{fill:#005EFF;}
</style>
<path  d="M76.3,7.9c-1.5-0.3-3,0.6-3.3,2.1l-2,9.5c-6.5-11-18.3-18-31.3-18c-20,0-36.3,16.3-36.3,36.3
	c0,1.5,1.3,2.8,2.8,2.8c1.5,0,2.8-1.3,2.8-2.8c0-17,13.8-30.7,30.7-30.7c11.1,0,21.1,5.9,26.6,15.3l-9.3-2c-1.5-0.3-3,0.6-3.3,2.1
	c-0.3,1.5,0.6,3,2.1,3.3l16,3.4c0.3,0.1,0.5,0.1,0.8,0.1c0.5,0,0.9-0.2,1.3-0.4c0.6-0.4,1.1-1,1.2-1.8l3.4-16
	C78.8,9.7,77.8,8.2,76.3,7.9L76.3,7.9z M76.3,7.9"/>
<path  d="M73.5,34.2c-1.5,0.1-2.8,1.3-2.7,2.9c0.3,8.2-2.7,16-8.3,22c-5.6,6-13.2,9.4-21.4,9.7c-0.3,0-0.7,0-1,0
	c-10.7,0-20.6-5.6-26.1-14.6l9.7,2.6c1.5,0.4,3-0.5,3.4-2c0.4-1.5-0.5-3-2-3.4L9.3,47.3c-0.7-0.2-1.5-0.1-2.1,0.3
	c-0.6,0.4-1.1,1-1.3,1.7L1.6,65c-0.4,1.5,0.5,3,2,3.4c0.2,0.1,0.5,0.1,0.7,0.1c1.2,0,2.4-0.8,2.7-2.1l2.4-8.9
	C16,68,27.5,74.5,40,74.5c0.4,0,0.8,0,1.2,0c9.7-0.3,18.7-4.4,25.3-11.5c6.6-7.1,10.1-16.3,9.8-26C76.3,35.4,75,34.2,73.5,34.2
	L73.5,34.2z M73.5,34.2"/>
</svg>
