<?xml version="1.0" encoding="utf-8"?>
<!-- Generator: Adobe Illustrator 22.0.1, SVG Export Plug-In . SVG Version: 6.00 Build 0)  -->
<svg version="1.1" id="Слой_1" xmlns="http://www.w3.org/2000/svg" xmlns:xlink="http://www.w3.org/1999/xlink" x="0px" y="0px"
	 viewBox="0 0 125.3 125.8" style="enable-background:new 0 0 125.3 125.8;" xml:space="preserve">
<style type="text/css">
	.st0{fill:none;}
	.st1{fill:#005EFF;}
</style>
<rect x="9.6" y="1.5" class="st0" width="106.5" height="125.8"/>
<g>
	<path class="st1" d="M57.9,84.9c0.9-0.9,0.9-2.5,0-3.4s-2.5-0.9-3.4,0s-0.9,2.5,0,3.4C55.5,85.8,57,85.8,57.9,84.9L57.9,84.9z"/>
	<path class="st1" d="M46.6,27.9c0,14.6,11.8,26.4,26.4,26.4s26.4-11.8,26.4-26.4S87.6,1.5,73,1.5S46.6,13.3,46.6,27.9L46.6,27.9z
		 M94.6,27.9c0,11.9-9.7,21.6-21.6,21.6s-21.6-9.7-21.6-21.6S61.1,6.3,73,6.3S94.6,16,94.6,27.9L94.6,27.9z"/>
	<path class="st1" d="M29.1,123.7c0.9,0.9,2.4,0.9,3.4,0l11.6-11.5c2-2,2.6-4.9,1.7-7.4l2.5-2.4c1.3-1.3,3.1-2,5-2h31.9
		c5.7,0,11-2.2,15.1-6.1c0.2-0.2-1.3,1.5,21.8-26c3.4-4,2.9-10.1-1.1-13.5s-10-2.9-13.5,1.1L93.3,70.4c-1.8-2.2-4.5-3.6-7.5-3.6
		H59.1c-3.8-1.6-7.9-2.4-12-2.4c-11.6,0-21.7,5.3-27.1,15.3c-2.3-0.4-4.7,0.3-6.4,2L2.2,93.2c-0.9,0.9-0.9,2.4,0,3.4L29.1,123.7z
		 M47.1,69.2c3.7,0,7.2,0.7,10.6,2.2c0.3,0.1,0.6,0.2,1,0.2H86c2.6,0,4.8,2.1,4.8,4.8c0,2.6-2.2,4.8-4.8,4.8H66.3
		c-1.3,0-2.4,1.1-2.4,2.4S65,86,66.3,86h19.6c5.3,0,9.6-4.3,9.6-9.6c0-0.4,0-0.8-0.1-1.3C109.1,61,111,59,111.1,58.9
		c1.7-2,4.7-2.3,6.8-0.6c2,1.7,2.3,4.7,0.6,6.8L96.9,90.9c-3.1,3-7.3,4.7-11.6,4.7h-32c-3.1,0-6.1,1.2-8.3,3.4l-2,2L24.2,82.1
		C28.6,73.9,36.8,69.2,47.1,69.2L47.1,69.2z M17,85.1c0.8-0.8,2-0.9,3-0.3c0.4,0.3-0.8-0.8,20.8,20.7c1,1,0.9,2.5,0,3.4l-9.9,9.8
		L7.3,94.9L17,85.1z"/>
	<g>
		<path class="st1" d="M73.8,17.4h-5.1v11.4h-1.3c-0.7,0-1.3,0.6-1.3,1.3l0,0h2.5v2.5h-2.5v1.3h2.5v3.8h1.3v-3.8h4.5v-1.3h-4.5v-2.5
			h3.8c0,0,0.2,0,0.6,0c1.1,0,3.6-0.2,5.3-1.8c1.2-1.1,1.8-2.7,1.8-4.6s-0.6-3.5-1.8-4.6C77.4,17.1,73.9,17.4,73.8,17.4L73.8,17.4z
			 M78.8,27.4c-1.8,1.7-4.9,1.4-5,1.4H70V18.7h3.9c0,0,3.1-0.3,4.9,1.4c0.9,0.9,1.4,2.1,1.4,3.7C80.2,25.3,79.7,26.6,78.8,27.4
			L78.8,27.4z"/>
		<path class="st1" d="M70,38.2h-1.3c-0.2,0-0.5-0.2-0.5-0.5v-3.3h-2.1c-0.2,0-0.5-0.2-0.5-0.5v-1.3c0-0.2,0.2-0.5,0.5-0.5h2.1v-1.6
			h-2.1c-0.2,0-0.5-0.2-0.5-0.5c0-1,0.8-1.7,1.7-1.7h0.8V17.4c0-0.2,0.2-0.5,0.5-0.5h5.1c0.5,0,3.9-0.2,6.1,1.9c1.3,1.2,2,2.9,2,4.9
			c0,2.1-0.7,3.7-2,4.9c-1.8,1.6-4.3,1.9-5.6,1.9c-0.3,0-0.5,0-0.6,0h-3.3v1.6h4c0.2,0,0.5,0.2,0.5,0.5v1.3c0,0.2-0.2,0.5-0.5,0.5
			h-4v3.4C70.5,38,70.3,38.2,70,38.2z M69.2,37.3h0.4v-3.4c0-0.2,0.2-0.5,0.5-0.5h4V33h-4c-0.2,0-0.5-0.2-0.5-0.5V30
			c0-0.2,0.2-0.5,0.5-0.5h3.8l0,0c0,0,0.2,0,0.5,0c1,0,3.3-0.2,5-1.7c1.1-1,1.7-2.5,1.7-4.3s-0.6-3.3-1.7-4.3
			c-2.1-1.9-5.4-1.6-5.4-1.6s0,0-0.1,0h-4.6v11c0,0.2-0.2,0.5-0.5,0.5h-1.3c-0.3,0-0.5,0.1-0.7,0.4h2c0.2,0,0.5,0.2,0.5,0.5v2.5
			c0,0.2-0.2,0.5-0.5,0.5h-2.1v0.4h2.1c0.2,0,0.5,0.2,0.5,0.5v3.4H69.2z M74.3,29.3c-0.3,0-0.4,0-0.5,0H70c-0.2,0-0.5-0.2-0.5-0.5
			V18.7c0-0.2,0.2-0.5,0.5-0.5h3.9c0.3,0,3.3-0.2,5.2,1.5c1,0.9,1.6,2.3,1.6,4s-0.5,3.1-1.5,4C77.6,29.1,75.3,29.3,74.3,29.3z
			 M70.5,28.4h3.4l0,0c0.3,0,3,0.2,4.6-1.3l0,0c0.8-0.8,1.3-1.9,1.3-3.3c0-1.4-0.4-2.6-1.3-3.3c-1.7-1.5-4.4-1.3-4.6-1.3l0,0h-3.4
			V28.4z"/>
	</g>
</g>
</svg>
