<?xml version="1.0" encoding="utf-8"?>
<!-- Generator: Adobe Illustrator 22.0.1, SVG Export Plug-In . SVG Version: 6.00 Build 0)  -->
<svg version="1.1" id="Слой_1" xmlns="http://www.w3.org/2000/svg" xmlns:xlink="http://www.w3.org/1999/xlink" x="0px" y="0px"
	 viewBox="0 0 88.2 79" style="enable-background:new 0 0 88.2 79;" xml:space="preserve">

<rect x="-8.3" y="-21.9" class="st0" width="106.5" height="125.8"/>
<g>
	<path  d="M6.7,77.1c-1.4,0-2.7-0.9-3.1-2.4c-0.4-1.7,0.6-3.5,2.3-3.9c23.6-6.2,28.9-9.9,30.1-11.3
		C33.8,57.9,25.5,56,20.8,55c-10.5-2.3-18.1-4-18.2-9.3c-0.1-5.4,7.9-7.5,19.1-10.5c3.7-1,9.2-2.5,12.2-3.8c-3-1.1-8.6-2.2-12.2-3
		c-10.8-2.2-17.3-3.5-17.4-8.2C4.1,15.1,7.9,9.3,36.9,4.9c1.7-0.3,3.4,0.9,3.6,2.7c0.3,1.7-0.9,3.4-2.7,3.6
		c-20.3,3.1-25.5,6.6-26.8,8.1c2.4,1,8,2.1,11.8,2.9c10.9,2.2,18.7,3.8,18.9,9c0.1,5.2-7.2,7.2-18.4,10.2c-4,1.1-10.3,2.8-13.2,4.2
		c2.7,1.1,8.1,2.3,12,3.2C33.2,51.3,42,53.2,42.5,59c0.4,5.1-5.4,10.2-35.1,18C7.2,77.1,6.9,77.1,6.7,77.1z M10.7,20.1L10.7,20.1
		L10.7,20.1z"/>
	<path  d="M51.4,77.1c-1.4,0-2.7-0.9-3.1-2.4c-0.4-1.7,0.6-3.5,2.3-3.9c23.6-6.2,28.9-9.9,30.1-11.3
		c-2.2-1.7-10.5-3.5-15.1-4.6c-10.5-2.3-18.1-4-18.2-9.3c-0.1-5.4,7.9-7.5,19.1-10.5c3.7-1,9.2-2.5,12.2-3.8c-3-1.1-8.6-2.2-12.2-3
		c-10.9-2-17.4-3.3-17.5-8.1c-0.2-5.1,3.6-10.9,32.6-15.3c1.7-0.3,3.4,0.9,3.6,2.7c0.3,1.7-0.9,3.4-2.7,3.6
		c-20.3,3.1-25.5,6.6-26.8,8.1c2.4,1,8,2.1,11.8,2.9c10.9,2.2,18.7,3.8,18.9,9c0.1,5.2-7.2,7.2-18.4,10.2c-4,1.1-10.3,2.8-13.2,4.2
		c2.7,1.1,8.1,2.3,12,3.2c11.1,2.5,19.9,4.4,20.4,10.2c0.4,5.1-5.4,10.2-35.1,18C51.9,77.1,51.7,77.1,51.4,77.1z M55.4,20.1
		L55.4,20.1L55.4,20.1z"/>
</g>
</svg>
