<?xml version="1.0" encoding="utf-8"?>
<!-- Generator: Adobe Illustrator 22.0.1, SVG Export Plug-In . SVG Version: 6.00 Build 0)  -->
<svg version="1.1" id="Слой_1" xmlns="http://www.w3.org/2000/svg" xmlns:xlink="http://www.w3.org/1999/xlink" x="0px" y="0px"
	 viewBox="0 0 354.3 305.5" style="enable-background:new 0 0 354.3 305.5;" xml:space="preserve">
<style type="text/css">
	.st0{fill:#005EFF;}
	.st1{fill:none;}
</style>
<path class="st0" d="M353.5,66.1c-0.3-1.9-1.6-3.5-3.3-4.3L221,3.6c-2.1-0.9-4.5-0.6-6.2,0.9l-37.7,33.4L139.4,4.5
	c-1.7-1.5-4.1-1.9-6.2-0.9L4,61.8c-1.7,0.8-3,2.4-3.3,4.3C0.4,68,1,69.9,2.4,71.2L43,110.5l-22.9,40.3c-1.6,2.7-0.6,6.3,2.2,7.8
	l22.1,12.6v51.9c0,2,1.1,3.9,2.9,5l127,73.5c0.9,0.5,1.9,0.8,2.9,0.8c0.7,0,1.4-0.1,2-0.4v0.1l127.9-74c1.8-1,2.9-2.9,2.9-5v-51.9
	l22.1-12.6c2.7-1.6,3.7-5.1,2.1-7.8l-22.8-40.3l40.5-39.3C353.2,69.8,353.8,67.9,353.5,66.1z M209.6,227.6c1,0,2-0.3,2.8-0.8
	l85.9-49v42l-115.5,66.8v-90.3l22.2,29C206.1,226.8,207.8,227.6,209.6,227.6z M224,147.1l-41.1-23.8V55l108.9,54.8L224,147.1z
	 M187.3,44.3l32.4-28.6l118.1,53.2l-34.7,33.7L187.3,44.3z M301.9,117.2l19.4,34.3l-110.2,62.9l-25.4-33.1L301.9,117.2z
	 M212.2,153.5l-35.1,19.4L142,153.5l35.1-20.4L212.2,153.5z M51.2,102.5L16.5,68.8l118.1-53.2L167,44.2L51.2,102.5z M55.8,177.8
	l85.9,49c0.9,0.5,1.8,0.8,2.8,0.8c1.8,0,3.5-0.8,4.6-2.3l22.2-29v90.3L55.8,219.8L55.8,177.8L55.8,177.8z M168.5,181.3l-25.4,33.1
	L32.9,151.5l19.4-34.3L168.5,181.3z M62.4,109.7l108.9-54.8v68.3l-41.1,23.9L62.4,109.7z"/>
<rect x="3.5" y="5.5" class="st1" width="351.8" height="299"/>
</svg>
