<?xml version="1.0" encoding="utf-8"?>
<!-- Generator: Adobe Illustrator 22.0.1, SVG Export Plug-In . SVG Version: 6.00 Build 0)  -->
<svg version="1.1" id="Слой_1" xmlns="http://www.w3.org/2000/svg" xmlns:xlink="http://www.w3.org/1999/xlink" x="0px" y="0px"
	 viewBox="0 0 122.4 122" style="enable-background:new 0 0 122.4 122;" xml:space="preserve">
<style type="text/css">
	.st0{fill:#FFFFFF;}
</style>
<g>
	<path class="st0" d="M121.4,60.6c0-33.2-27-60.2-60.2-60.2S1,27.4,1,60.6s27,60.2,60.2,60.2S121.4,93.8,121.4,60.6L121.4,60.6z
		 M6.4,60.6c0-30.2,24.5-54.7,54.7-54.7s54.7,24.5,54.7,54.7s-24.5,54.7-54.7,54.7S6.4,90.8,6.4,60.6L6.4,60.6z"/>
	<path class="st0" d="M87.8,74.1c-0.1-0.2-0.1-0.3-0.2-0.4c-1-1.9-3-4.1-5.9-6.8l-0.1-0.1l0,0l0,0l0,0c-1.3-1.3-2.2-2.1-2.5-2.5
		c-0.6-0.8-0.8-1.7-0.4-2.5c0.2-0.6,1.2-2,2.8-4c0.8-1.1,1.5-2,2-2.6c3.6-4.7,5.1-7.8,4.6-9.1l-0.3-0.4c-0.1-0.2-0.4-0.4-1-0.5
		c-0.5-0.2-1.2-0.2-2-0.1l-8.9,0.1c-0.1,0-0.3,0-0.6,0c-0.3,0.1-0.4,0.1-0.4,0.1l-0.2,0.1l-0.1,0.1c-0.1,0.1-0.2,0.2-0.3,0.3
		c-0.1,0.2-0.2,0.3-0.3,0.5c-1,2.5-2.1,4.8-3.3,6.9c-0.8,1.3-1.5,2.4-2.1,3.3c-0.6,0.9-1.2,1.6-1.6,2.1c-0.4,0.4-0.8,0.8-1.2,1.1
		C65.4,60,65.2,60.1,65,60c-0.2,0-0.4-0.1-0.5-0.1c-0.3-0.2-0.5-0.4-0.7-0.8c-0.2-0.3-0.3-0.7-0.4-1.2c0-0.5,0-0.9,0-1.2
		s0-0.8,0-1.5c0-0.6,0-1.1,0-1.3c0-0.8,0-1.6,0-2.5s0.1-1.6,0.1-2.2c0-0.5,0-1.1,0-1.7c0-0.6,0-1.1-0.1-1.4c-0.1-0.3-0.2-0.7-0.3-1
		c-0.1-0.3-0.4-0.6-0.6-0.7c-0.3-0.2-0.6-0.3-1-0.4c-1.1-0.2-2.5-0.4-4.2-0.4c-3.8,0-6.3,0.2-7.4,0.7c-0.4,0.2-0.8,0.5-1.2,0.9
		c-0.4,0.5-0.4,0.7-0.2,0.7c1.2,0.2,2.1,0.6,2.6,1.3l0.2,0.4c0.1,0.3,0.3,0.7,0.4,1.4c0.1,0.7,0.2,1.4,0.3,2.3
		c0.1,1.5,0.1,2.8,0,3.9s-0.2,1.9-0.3,2.5s-0.2,1.1-0.4,1.5s-0.3,0.6-0.4,0.7c-0.1,0.1-0.1,0.1-0.2,0.2c-0.3,0.1-0.5,0.2-0.8,0.2
		s-0.6-0.1-1-0.4s-0.8-0.7-1.3-1.2c-0.4-0.5-0.9-1.2-1.5-2.1s-1.1-2-1.7-3.2l-0.5-0.9c-0.3-0.6-0.7-1.4-1.3-2.5
		c-0.5-1.1-1-2.2-1.4-3.2c-0.2-0.4-0.4-0.8-0.7-1l-0.1-0.3c-0.1-0.1-0.3-0.2-0.5-0.3S39.4,45,39.2,45l-8.5,0.1
		c-0.9,0-1.5,0.2-1.8,0.6l-0.1,0.2c-0.1,0.1-0.1,0.3-0.1,0.5s0.1,0.5,0.2,0.8c1.2,2.9,2.6,5.7,4,8.4c1.5,2.7,2.7,4.9,3.8,6.5
		s2.2,3.2,3.3,4.7s1.8,2.4,2.2,2.8s0.6,0.7,0.8,0.9l0.8,0.7c0.5,0.5,1.2,1.1,2.2,1.8c1,0.7,2,1.4,3.2,2c1.2,0.7,2.5,1.2,4.1,1.6
		c1.5,0.4,3,0.6,4.5,0.5h3.6c0.7-0.1,1.3-0.3,1.6-0.7l0.1-0.2c0.1-0.1,0.2-0.3,0.2-0.6c0.1-0.3,0.1-0.5,0.1-0.8c0-0.9,0-1.7,0.2-2.4
		c0.2-0.7,0.3-1.2,0.5-1.6c0.2-0.4,0.4-0.7,0.7-0.9c0.2-0.2,0.4-0.4,0.5-0.4c0.1-0.1,0.2-0.1,0.2-0.1c0.5-0.2,1.1,0,1.7,0.5
		c0.7,0.5,1.3,1.1,1.9,1.8c0.6,0.7,1.3,1.5,2.1,2.4s1.5,1.5,2.2,2l0.6,0.4c0.4,0.2,0.9,0.5,1.6,0.7s1.2,0.3,1.7,0.2l7.9-0.1
		c0.8,0,1.4-0.1,1.8-0.4c0.4-0.3,0.7-0.5,0.8-0.8s0.1-0.7,0-1.1C87.9,74.5,87.8,74.2,87.8,74.1L87.8,74.1z"/>
</g>
</svg>
