<?xml version="1.0" encoding="utf-8"?>
<!-- Generator: Adobe Illustrator 22.0.1, SVG Export Plug-In . SVG Version: 6.00 Build 0)  -->
<svg version="1.1" id="Слой_1" xmlns="http://www.w3.org/2000/svg" xmlns:xlink="http://www.w3.org/1999/xlink" x="0px" y="0px"
	 viewBox="0 0 122.8 123" style="enable-background:new 0 0 122.8 123;" xml:space="preserve">
<style type="text/css">
	.st0{fill:#FFFFFF;}
	.st1{fill:none;}
</style>
<g>
	<path class="st0" d="M121.4,61.7c0-33.2-27-60.2-60.2-60.2S1,28.5,1,61.7s27,60.2,60.2,60.2S121.4,94.9,121.4,61.7L121.4,61.7z
		 M6.5,61.7C6.5,31.5,31,7,61.3,7s54.7,24.5,54.7,54.7s-24.5,54.7-54.7,54.7S6.5,91.9,6.5,61.7L6.5,61.7z"/>
	<path class="st0" d="M86.3,49c-0.6-2.8-2.9-4.8-5.7-5.1c-6.5-0.7-13.1-0.7-19.6-0.7s-13.1,0-19.6,0.7c-2.7,0.3-5,2.4-5.7,5.1
		c-0.9,4-0.9,8.3-0.9,12.4s0,8.4,0.9,12.4c0.6,2.8,2.9,4.8,5.7,5.1c6.5,0.7,13.1,0.7,19.6,0.7s13.1,0,19.6-0.7
		c2.7-0.3,5-2.4,5.7-5.1c0.9-4,0.9-8.3,0.9-12.4S87.3,53,86.3,49L86.3,49z M54.3,69.5V52.2c5.5,2.9,11.1,5.8,16.6,8.7
		C65.4,63.8,59.8,66.6,54.3,69.5L54.3,69.5z"/>
	<rect x="34.8" y="43.1" class="st1" width="52.7" height="37.1"/>
</g>
</svg>
